<svg xmlns="http://www.w3.org/2000/svg" xmlns:xlink="http://www.w3.org/1999/xlink" viewBox="0 0 8192.5 4608.5"><defs><style>.cls-1{fill:url(#未命名的渐变_72);}.cls-2{fill:url(#未命名的渐变_305);}.cls-3{fill:url(#未命名的渐变_35);}.cls-4{fill:url(#未命名的渐变_39);}.cls-5{fill:url(#未命名的渐变_53);}</style><linearGradient id="未命名的渐变_72" x1="504.66" y1="700.98" x2="7985.07" y2="4040.49" gradientUnits="userSpaceOnUse"><stop offset="0" stop-color="#33291e" stop-opacity="0.6"/><stop offset="0.27" stop-color="#362c21" stop-opacity="0.65"/><stop offset="0.62" stop-color="#403629" stop-opacity="0.79"/><stop offset="1" stop-color="#4f4535"/></linearGradient><linearGradient id="未命名的渐变_305" x1="1079.9" y1="640.96" x2="8254.21" y2="4596.51" gradientUnits="userSpaceOnUse"><stop offset="0" stop-color="#7e6429" stop-opacity="0.4"/><stop offset="0.2" stop-color="#7e6429" stop-opacity="0.45"/><stop offset="0.46" stop-color="#7f6329" stop-opacity="0.57"/><stop offset="0.76" stop-color="#7f622a" stop-opacity="0.79"/><stop offset="1" stop-color="#80612a"/></linearGradient><linearGradient id="未命名的渐变_35" x1="1911.83" y1="-1130.08" x2="5410.21" y2="4830.31" gradientUnits="userSpaceOnUse"><stop offset="0.12" stop-color="#15264a"/><stop offset="0.32" stop-color="#132a4f"/><stop offset="0.57" stop-color="#0e365e"/><stop offset="0.83" stop-color="#064977"/><stop offset="1" stop-color="#00588a"/></linearGradient><linearGradient id="未命名的渐变_39" x1="3153.14" y1="984.31" x2="5065.78" y2="4242.99" gradientUnits="userSpaceOnUse"><stop offset="0.25" stop-color="#26524f" stop-opacity="0.8"/><stop offset="0.68" stop-color="#26554f" stop-opacity="0.42"/><stop offset="1" stop-color="#26574f" stop-opacity="0.1"/></linearGradient><linearGradient id="未命名的渐变_53" x1="2254.48" y1="-796.36" x2="6133.15" y2="6144.56" gradientUnits="userSpaceOnUse"><stop offset="0.34" stop-color="#435f73"/><stop offset="0.43" stop-color="#4b6374" stop-opacity="0.99"/><stop offset="0.55" stop-color="#606f77" stop-opacity="0.95"/><stop offset="0.69" stop-color="#84837c" stop-opacity="0.89"/><stop offset="0.71" stop-color="#8a867d" stop-opacity="0.88"/></linearGradient></defs><g id="Bottom"><rect class="cls-1" x="0.5" y="0.5" width="8192" height="4608"/></g><g id="图层_1" data-name="图层 1"><path class="cls-2" d="M5167.5-.5c-408.75,1088.61-933,1488.43-1350,1647-585.17,222.5-896.23-78.82-1844,238-363.8,121.61-824,279.66-1283,689-356.93,318.29-569.79,656.43-691,889V4608H8192V-.5Z" transform="translate(0.5 0.5)"/></g><g id="图层_2" data-name="图层 2"><path class="cls-3" d="M7623,0C7268.6,1968.64,6382.14,2562.45,6040,2746c-407,218.33-1228.34,317.26-2878,417-582.19,35.2-1219,42.87-1989,355C645.12,3732,252.5,4008.82,0,4213V-.5Z" transform="translate(0.5 0.5)"/></g><g id="图层_3" data-name="图层 3"><path class="cls-4" d="M7622.5-.5c-225.19,1787.87-1051.65,2405.08-1317,2577-651.3,422-1526.54,479.32-3277,594-497.9,32.62-837.38,33.94-1343,176C898,3567.75,332.67,3947.68.5,4212.5l-1-750c178.33-343.83,473.47-898.15,1034-1230,960.85-568.86,1789-91.84,2737-569,415.71-209.23,966.15-643.88,1397-1664Z" transform="translate(0.5 0.5)"/></g><g id="图层_5" data-name="图层 5"><path class="cls-5" d="M7974,0c-8.47,462.11-90.77,2160.52-1250.18,2966.17-657.83,457.11-1470,493.1-2645.32,545.18-1059.69,47-1303-107.6-2004.81,29.25C1143.5,3722,448.5,4212.46,0,4608V4097.28c427.42-313.21,959.18-639.22,1599.73-910.74,1908.9-809.15,3179,126.47,4455.82-533.7C6613.47,2364.36,7180.77,1708.53,7623,0Z" transform="translate(0.5 0.5)"/></g></svg>