<svg xmlns="http://www.w3.org/2000/svg" xmlns:xlink="http://www.w3.org/1999/xlink" viewBox="0 0 8192.5 4608.5"><defs><style>.cls-1{fill:url(#未命名的渐变_53);}.cls-2{fill:url(#未命名的渐变_53-2);}.cls-3{fill:url(#未命名的渐变_40);}.cls-4{fill:url(#未命名的渐变_52);}.cls-5{fill:url(#未命名的渐变_2);}</style><linearGradient id="未命名的渐变_53" x1="-461.12" y1="-208.34" x2="8263.93" y2="4602.21" gradientUnits="userSpaceOnUse"><stop offset="0" stop-color="#f6e5be" stop-opacity="0.6"/><stop offset="0.19" stop-color="#f5e3b8" stop-opacity="0.63"/><stop offset="0.43" stop-color="#f3dba6" stop-opacity="0.71"/><stop offset="0.72" stop-color="#eed089" stop-opacity="0.83"/><stop offset="1" stop-color="#e9c164"/></linearGradient><linearGradient id="未命名的渐变_53-2" x1="1079.9" y1="640.96" x2="8254.21" y2="4596.51" xlink:href="#未命名的渐变_53"/><linearGradient id="未命名的渐变_40" x1="1911.83" y1="-1130.08" x2="5410.21" y2="4830.31" gradientUnits="userSpaceOnUse"><stop offset="0.25" stop-color="#3f60ff"/><stop offset="0.37" stop-color="#3863ff" stop-opacity="0.88"/><stop offset="0.63" stop-color="#276bff" stop-opacity="0.57"/><stop offset="1" stop-color="#0d76ff" stop-opacity="0.1"/></linearGradient><linearGradient id="未命名的渐变_52" x1="3153.14" y1="984.31" x2="5065.78" y2="4242.99" gradientUnits="userSpaceOnUse"><stop offset="0.25" stop-color="#2ac0cd" stop-opacity="0.8"/><stop offset="0.44" stop-color="#24b0d8" stop-opacity="0.65"/><stop offset="0.84" stop-color="#1487f3" stop-opacity="0.26"/><stop offset="1" stop-color="#0d76ff" stop-opacity="0.1"/></linearGradient><linearGradient id="未命名的渐变_2" x1="2254.48" y1="-796.36" x2="6133.15" y2="6144.56" gradientUnits="userSpaceOnUse"><stop offset="0.34" stop-color="#abd8f4"/><stop offset="0.42" stop-color="#b2daf0" stop-opacity="0.99"/><stop offset="0.54" stop-color="#c7dfe6" stop-opacity="0.96"/><stop offset="0.66" stop-color="#e8e7d6" stop-opacity="0.9"/><stop offset="0.71" stop-color="#f8ebce" stop-opacity="0.88"/></linearGradient></defs><g id="Bottom"><rect class="cls-1" x="0.5" y="0.5" width="8192" height="4608"/></g><g id="图层_1" data-name="图层 1"><path class="cls-2" d="M5167.5-.5c-408.75,1088.61-933,1488.43-1350,1647-585.17,222.5-896.23-78.82-1844,238-363.8,121.61-824,279.66-1283,689-356.93,318.29-569.79,656.43-691,889V4608H8192V-.5Z" transform="translate(0.5 0.5)"/></g><g id="图层_2" data-name="图层 2"><path class="cls-3" d="M7623,0C7268.6,1968.64,6382.14,2562.45,6040,2746c-407,218.33-1228.34,317.26-2878,417-582.19,35.2-1219,42.87-1989,355C645.12,3732,252.5,4008.82,0,4213V-.5Z" transform="translate(0.5 0.5)"/></g><g id="图层_3" data-name="图层 3"><path class="cls-4" d="M7622.5-.5c-225.19,1787.87-1051.65,2405.08-1317,2577-651.3,422-1526.54,479.32-3277,594-497.9,32.62-837.38,33.94-1343,176C898,3567.75,332.67,3947.68.5,4212.5l-1-750c178.33-343.83,473.47-898.15,1034-1230,960.85-568.86,1789-91.84,2737-569,415.71-209.23,966.15-643.88,1397-1664Z" transform="translate(0.5 0.5)"/></g><g id="图层_5" data-name="图层 5"><path class="cls-5" d="M7974,0c-8.47,462.11-90.77,2160.52-1250.18,2966.17-657.83,457.11-1470,493.1-2645.32,545.18-1059.69,47-1303-107.6-2004.81,29.25C1143.5,3722,448.5,4212.46,0,4608V4097.28c427.42-313.21,959.18-639.22,1599.73-910.74,1908.9-809.15,3179,126.47,4455.82-533.7C6613.47,2364.36,7180.77,1708.53,7623,0Z" transform="translate(0.5 0.5)"/></g></svg>