<svg xmlns="http://www.w3.org/2000/svg" viewBox="0 0 558.77 155.74"><defs><style>.cls-1,.cls-2,.cls-3,.cls-4{fill:#fff;}.cls-1,.cls-2,.cls-4{stroke:#6cf;stroke-miterlimit:10;}.cls-1{stroke-width:15px;}.cls-2{stroke-width:20px;}.cls-4{stroke-width:13px;}</style></defs><g id="图层_4" data-name="图层 4"><path class="cls-1" d="M50.41,72.26c5.13-12,13.25-13.62,24.3-11.16,22.45,5,45.12,3.73,67.64-.29,2.85-.51,5.09-.46,6.8,2s.15,4.31-1,6.38c-2.74,5.09-7.26,8.2-12.35,10-4.26,1.52-6.17,4.09-7.06,8.21-4.61,21.44-9.73,42.79-13.81,64.32-1.71,9.07-7.77,7.27-13.41,7.41-6.79.18-4.71-4.9-5.27-8.77-.7-4.81,2.13-8.32,3.42-12.4,2.33-7.38.94-9.38-6.6-9.89-2.82-.19-5.66-.41-8.44-.88-18.16-3-24-14.36-16.88-31.87,1.64-4,2.35-8.45,3.11-12.76.51-2.93-.73-4.18-4.17-4.91C61.21,76.56,55.23,75.93,50.41,72.26Zm47.9,40.13c3.61-.28,8.77,1.74,10.22-4.53,1.56-6.74,3-13.51,4.27-20.31.47-2.54.43-5.38-3.29-5.7-4.85-.43-9.7-.88-14.56-1.12-3.22-.16-5.33,1.44-6.13,4.67-1,4-2.22,7.88-3.07,11.88C83.25,109,85.75,112.11,98.31,112.39Z" transform="translate(-25.02 -22.16)"/><path class="cls-2" d="M399.14,109.85c9.3,16.47,20.09,30.38,40.7,33.84-3.75,4.84-7.25,8.08-9.43,12.42-1.88,3.76-5.18,2.07-8,.81-13.06-5.78-22.72-15.43-30.44-27.15-3.11-4.73-5.7-9.79-9.13-15.74-11.19,19-24.39,35.72-45.93,44-2.67-5.33-6.72-9-11.4-14.14,18-6.19,31.58-16.28,39.68-35.06H326.31c2.21-5.36,3.7-9.14,5.32-12.87,1.26-2.9,4-2.26,6.3-2.27,9.2,0,18.4-.18,27.59.06,4.59.12,6.6-1.84,7.71-6.13,1.9-7.3,1.64-14.77,2.53-22.14.49-4-2.62-3.9-5.29-3.92-10.51-.09-21-.27-31.53-.09-5.08.08-7.71-1.25-7.45-7,.24-5.41,2.09-8.23,7.81-8,13.77.61,27.56.24,41.34.57,12.4.29,24.92-.61,37.38-.42,10.06.15,15.32,5,15.64,14.86h-26c-13.81,0-13.81,0-15.46,13.24-.48,3.9-.56,7.93-1.62,11.68-1.71,6.1,1.08,7.31,6.31,7.23,9.41-.14,18.84-.14,28.25.09,5.69.14,10.89,1.74,13.46,7.6,2.36,5.38,1.24,7.2-4.65,7.26-9,.09-18,0-26.94,0C404.68,108.63,402.25,108.27,399.14,109.85Z" transform="translate(-25.02 -22.16)"/><path class="cls-2" d="M509.1,133.41c5.26-3.22,8.59-7.6,12.24-11.58,2-2.22,1.09-4.88.43-7.48-1.38-5.51-2.71-11-3.78-16.63-1-5.23,1.15-6.87,6.19-5.22,4.84,1.58,7.52,5.75,11.09,9.35C543,97.33,550,91.37,560.42,91c-3.74,5-6.76,9.4-10.23,13.46-11.28,13.2-10.92,17.87,1.21,30.86,4.89,5.24,11.16,8.08,17.63,11.81-2.74,3.65-4.92,6.85-7.39,9.8-2.22,2.65-4.81,1.46-7.07,0-7.49-5-14.58-10.55-19.63-18.14-3-4.51-5.13-4.6-7.94.14-6.33,10.64-16.59,15.86-27.9,19.36-4.94,1.53-7.26-.28-7.16-5.82.26-13.79.14-27.59.08-41.39,0-2.31.73-4.84-1.13-6.82-3-1.47-7.74,3.54-9.31-2.68-1.66-6.58.22-11,5.69-14,5.88-3.16,12.13-6,15.14-12.8-3.35-2.57-7-1.35-10.34-1.49-4.92-.21-5.57-3.23-5.5-7.13s-.06-7.8,5.44-7.83c5.91,0,11.83-.14,17.74,0,4.24.12,6-1.72,5.86-5.87-.11-3.06,0-6.13,0-9.2,0-5.07,2.68-5.57,6.37-3.5,4.8,2.67,8.37,6.69,9.16,12.19s3.72,6.56,8.59,6.5c6.89-.1,14.09-1.67,20.35,3,1.76,1.32,3.52,2.51,4.49,4.64,2.47,5.4,1.13,7.86-4.7,7.93-9.2.12-18.4.18-27.6,0-3.84-.06-6.63,1.1-9,4.27-2.06,2.8-4.32,5.85-7.22,7.55-7.54,4.42-9.11,10.84-8.57,18.92.59,8.72.27,17.5.4,26.26C508,131.59,508.46,132.14,509.1,133.41Z" transform="translate(-25.02 -22.16)"/><path class="cls-2" d="M265,85.76a68.62,68.62,0,0,0-4-6c-5.93-7.08-7.13-6.31-11.69-1.12-2,2.26-5.13,5.58-8.12,1.57-2.46-3.29-8.46-5.86-3.28-12a56.73,56.73,0,0,0,12.64-25.65c1.6-8,7.49-4.76,11.91-5.35,4.08-.55,6.82.67,6.59,5.61-.17,3.5,2.62,3.44,5.1,3.45,9.2,0,18.4.21,27.6.09,5.23-.08,9.53,1.2,12.11,6.12s.7,9-2,12.9a102,102,0,0,1-14.15,16.36c-3.74,3.45-2.71,5.75,1.5,7.86,6.84,3.45,14.43,4.82,21.5,7.4-2.15,9-7.46,12.52-15.21,10.1-7.09-2.22-14.38-4-20.73-8.09-2.59-1.69-5.07-1.76-8-.42-8.95,4.07-17.85,8.34-27.76,9.8-8.06,1.19-12.5-3-11.48-11.06.41-3.31,3.26-3.13,5.47-3.66C250.36,91.93,258,90.84,265,85.76Zm28-26.83c-9.27-.08-17.87-1-27.29.48,2.63,6.62,6.82,10.7,10.86,14.82,1.68,1.7,4.29,2.11,5.9.29C286.45,70.08,291.12,66.05,293.07,58.93Z" transform="translate(-25.02 -22.16)"/><path class="cls-2" d="M275.34,113.67c7.44,0,14.88-.1,22.31,0,8.82.15,14.23,5.49,14.5,14.34.2,6.78.28,13.57.11,20.34-.08,3.07,1.61,7.22-2.32,8.81-4.67,1.89-9.95,2.64-14.51-.25-8.08-5.13-26.23-5-34.14.18-4.25,2.77-9.5,2-14,.59-4-1.25-2.39-5.62-2.46-8.68-.18-8.75-.08-17.5,0-26.25,0-8.54.75-9.17,9.53-9.14,7,0,14,0,21,0Zm3,26.26c3.06,0,6.13.07,9.2,0,5.66-.15,7.81-3.15,6-8.48-1.29-3.86-4.7-4.51-8-4.22-6.12.55-12.19,1.2-18.33.45-2.46-.29-3.48,1.08-3.91,3.38-1.26,6.65.42,8.83,7.15,8.89C273.06,140,275.69,140,278.32,139.93Z" transform="translate(-25.02 -22.16)"/><path class="cls-2" d="M455.79,102.75c-5.12,1.83-5.85-2.39-8.55-5.4-6.82-7.6-3-11.53,2.53-17.3a66,66,0,0,0,17.92-36.51c.77-5.2,12.54-9.28,16.6-5.92,2.11,1.75,1.46,4.08.95,6.1-2.25,8.9-4.63,17.81-8.68,26.07a29.67,29.67,0,0,0-3,13.86c.15,22.54,0,45.08.15,67.62,0,5.45-.36,9.26-7.58,8.82-8.75-.53-9.25-.37-9.33-8.52-.13-13.78-.06-27.57-.14-41.36C456.68,107.85,457.23,105.4,455.79,102.75Z" transform="translate(-25.02 -22.16)"/><path class="cls-2" d="M203.68,149.1c.08-5.43,4.26-7.75,6-11.44,3.69-7.72,7-15.56,8.78-23.92,1-4.42,2.9-4.62,6.45-2.38,5.91,3.75,9,8.68,8.26,15.84-1.27,12.41-7,22.65-14.83,32.51C213.49,155.24,210.23,149.66,203.68,149.1Z" transform="translate(-25.02 -22.16)"/><path class="cls-2" d="M216.7,39.92c7.7.36,12.14,4.76,15.24,11s-1.17,10.38-4.11,14.78c-1.81,2.71-4.35,2.66-6.39-.16-4.26-5.86-9.07-11.06-15.64-14.47-2.92-1.52-3.47-3.83-.61-6.16C208.63,42.09,212.36,40,216.7,39.92Z" transform="translate(-25.02 -22.16)"/><path class="cls-2" d="M227.73,102.63c-5.46-4-11.3-5.59-16.85-7.84S204.32,85.1,200,80.89c6.59-5.14,14.18-5.39,20.47-1.16C227.07,84.15,230.52,94,227.73,102.63Z" transform="translate(-25.02 -22.16)"/><path class="cls-3" d="M399.14,109.85c9.3,16.47,20.09,30.38,40.7,33.84-3.75,4.84-7.25,8.08-9.43,12.42-1.88,3.76-5.18,2.07-8,.81-13.06-5.78-22.72-15.43-30.44-27.15-3.11-4.73-5.7-9.79-9.13-15.74-11.19,19-24.39,35.72-45.93,44-2.67-5.33-6.72-9-11.4-14.14,18-6.19,31.58-16.28,39.68-35.06H326.31c2.21-5.36,3.7-9.14,5.32-12.87,1.26-2.9,4-2.26,6.3-2.27,9.2,0,18.4-.18,27.59.06,4.59.12,6.6-1.84,7.71-6.13,1.9-7.3,1.64-14.77,2.53-22.14.49-4-2.62-3.9-5.29-3.92-10.51-.09-21-.27-31.53-.09-5.08.08-7.71-1.25-7.45-7,.24-5.41,2.09-8.23,7.81-8,13.77.61,27.56.24,41.34.57,12.4.29,24.92-.61,37.38-.42,10.06.15,15.32,5,15.64,14.86h-26c-13.81,0-13.81,0-15.46,13.24-.48,3.9-.56,7.93-1.62,11.68-1.71,6.1,1.08,7.31,6.31,7.23,9.41-.14,18.84-.14,28.25.09,5.69.14,10.89,1.74,13.46,7.6,2.36,5.38,1.24,7.2-4.65,7.26-9,.09-18,0-26.94,0C404.68,108.63,402.25,108.27,399.14,109.85Z" transform="translate(-25.02 -22.16)"/><path class="cls-3" d="M509.1,133.41c5.26-3.22,8.59-7.6,12.24-11.58,2-2.22,1.09-4.88.43-7.48-1.38-5.51-2.71-11-3.78-16.63-1-5.23,1.15-6.87,6.19-5.22,4.84,1.58,7.52,5.75,11.09,9.35C543,97.33,550,91.37,560.42,91c-3.74,5-6.76,9.4-10.23,13.46-11.28,13.2-10.92,17.87,1.21,30.86,4.89,5.24,11.16,8.08,17.63,11.81-2.74,3.65-4.92,6.85-7.39,9.8-2.22,2.65-4.81,1.46-7.07,0-7.49-5-14.58-10.55-19.63-18.14-3-4.51-5.13-4.6-7.94.14-6.33,10.64-16.59,15.86-27.9,19.36-4.94,1.53-7.26-.28-7.16-5.82.26-13.79.14-27.59.08-41.39,0-2.31.73-4.84-1.13-6.82-3-1.47-7.74,3.54-9.31-2.68-1.66-6.58.22-11,5.69-14,5.88-3.16,12.13-6,15.14-12.8-3.35-2.57-7-1.35-10.34-1.49-4.92-.21-5.57-3.23-5.5-7.13s-.06-7.8,5.44-7.83c5.91,0,11.83-.14,17.74,0,4.24.12,6-1.72,5.86-5.87-.11-3.06,0-6.13,0-9.2,0-5.07,2.68-5.57,6.37-3.5,4.8,2.67,8.37,6.69,9.16,12.19s3.72,6.56,8.59,6.5c6.89-.1,14.09-1.67,20.35,3,1.76,1.32,3.52,2.51,4.49,4.64,2.47,5.4,1.13,7.86-4.7,7.93-9.2.12-18.4.18-27.6,0-3.84-.06-6.63,1.1-9,4.27-2.06,2.8-4.32,5.85-7.22,7.55-7.54,4.42-9.11,10.84-8.57,18.92.59,8.72.27,17.5.4,26.26C508,131.59,508.46,132.14,509.1,133.41Z" transform="translate(-25.02 -22.16)"/><path class="cls-3" d="M265,85.76a68.62,68.62,0,0,0-4-6c-5.93-7.08-7.13-6.31-11.69-1.12-2,2.26-5.13,5.58-8.12,1.57-2.46-3.29-8.46-5.86-3.28-12a56.73,56.73,0,0,0,12.64-25.65c1.6-8,7.49-4.76,11.91-5.35,4.08-.55,6.82.67,6.59,5.61-.17,3.5,2.62,3.44,5.1,3.45,9.2,0,18.4.21,27.6.09,5.23-.08,9.53,1.2,12.11,6.12s.7,9-2,12.9a102,102,0,0,1-14.15,16.36c-3.74,3.45-2.71,5.75,1.5,7.86,6.84,3.45,14.43,4.82,21.5,7.4-2.15,9-7.46,12.52-15.21,10.1-7.09-2.22-14.38-4-20.73-8.09-2.59-1.69-5.07-1.76-8-.42-8.95,4.07-17.85,8.34-27.76,9.8-8.06,1.19-12.5-3-11.48-11.06.41-3.31,3.26-3.13,5.47-3.66C250.36,91.93,258,90.84,265,85.76Zm28-26.83c-9.27-.08-17.87-1-27.29.48,2.63,6.62,6.82,10.7,10.86,14.82,1.68,1.7,4.29,2.11,5.9.29C286.45,70.08,291.12,66.05,293.07,58.93Z" transform="translate(-25.02 -22.16)"/><path class="cls-3" d="M275.34,113.67c7.44,0,14.88-.1,22.31,0,8.82.15,14.23,5.49,14.5,14.34.2,6.78.28,13.57.11,20.34-.08,3.07,1.61,7.22-2.32,8.81-4.67,1.89-9.95,2.64-14.51-.25-8.08-5.13-26.23-5-34.14.18-4.25,2.77-9.5,2-14,.59-4-1.25-2.39-5.62-2.46-8.68-.18-8.75-.08-17.5,0-26.25,0-8.54.75-9.17,9.53-9.14,7,0,14,0,21,0Zm3,26.26c3.06,0,6.13.07,9.2,0,5.66-.15,7.81-3.15,6-8.48-1.29-3.86-4.7-4.51-8-4.22-6.12.55-12.19,1.2-18.33.45-2.46-.29-3.48,1.08-3.91,3.38-1.26,6.65.42,8.83,7.15,8.89C273.06,140,275.69,140,278.32,139.93Z" transform="translate(-25.02 -22.16)"/><path class="cls-3" d="M455.79,102.75c-5.12,1.83-5.85-2.39-8.55-5.4-6.82-7.6-3-11.53,2.53-17.3a66,66,0,0,0,17.92-36.51c.77-5.2,12.54-9.28,16.6-5.92,2.11,1.75,1.46,4.08.95,6.1-2.25,8.9-4.63,17.81-8.68,26.07a29.67,29.67,0,0,0-3,13.86c.15,22.54,0,45.08.15,67.62,0,5.45-.36,9.26-7.58,8.82-8.75-.53-9.25-.37-9.33-8.52-.13-13.78-.06-27.57-.14-41.36C456.68,107.85,457.23,105.4,455.79,102.75Z" transform="translate(-25.02 -22.16)"/><path class="cls-3" d="M203.68,149.1c.08-5.43,4.26-7.75,6-11.44,3.69-7.72,7-15.56,8.78-23.92,1-4.42,2.9-4.62,6.45-2.38,5.91,3.75,9,8.68,8.26,15.84-1.27,12.41-7,22.65-14.83,32.51C213.49,155.24,210.23,149.66,203.68,149.1Z" transform="translate(-25.02 -22.16)"/><path class="cls-3" d="M216.7,39.92c7.7.36,12.14,4.76,15.24,11s-1.17,10.38-4.11,14.78c-1.81,2.71-4.35,2.66-6.39-.16-4.26-5.86-9.07-11.06-15.64-14.47-2.92-1.52-3.47-3.83-.61-6.16C208.63,42.09,212.36,40,216.7,39.92Z" transform="translate(-25.02 -22.16)"/><path class="cls-3" d="M227.73,102.63c-5.46-4-11.3-5.59-16.85-7.84S204.32,85.1,200,80.89c6.59-5.14,14.18-5.39,20.47-1.16C227.07,84.15,230.52,94,227.73,102.63Z" transform="translate(-25.02 -22.16)"/><path class="cls-3" d="M50.65,72.47c5.13-12,13.25-13.62,24.3-11.16,22.45,5,45.12,3.73,67.64-.29,2.84-.51,5.08-.46,6.8,2s.15,4.31-1,6.38c-2.73,5.09-7.25,8.2-12.34,10-4.27,1.52-6.18,4.09-7.07,8.21-4.61,21.44-9.72,42.78-13.8,64.32-1.72,9.07-7.77,7.27-13.41,7.41-6.8.18-4.72-4.9-5.28-8.77-.69-4.81,2.13-8.32,3.42-12.4,2.33-7.38.94-9.38-6.59-9.89-2.83-.19-5.66-.42-8.45-.88-18.15-3-24-14.36-16.87-31.87,1.63-4,2.35-8.45,3.1-12.76.52-2.93-.72-4.19-4.16-4.91C61.44,76.76,55.46,76.14,50.65,72.47ZM98.54,112.6c3.62-.28,8.77,1.74,10.23-4.53,1.56-6.74,3-13.51,4.26-20.31.47-2.55.44-5.38-3.29-5.71-4.85-.42-9.7-.87-14.56-1.11-3.22-.16-5.32,1.44-6.13,4.67-1,4-2.22,7.88-3.07,11.88C83.48,109.25,86,112.32,98.54,112.6Z" transform="translate(-25.02 -22.16)"/><path class="cls-4" d="M103.61,171.39c-40.24,0-72.52-31.86-72.09-72C32,60.27,62.71,28.4,103.19,28.66c42.06.27,70.51,32.51,71.17,70.43C175.08,141.24,141.72,171.5,103.61,171.39ZM102.22,41c-35.52-.56-58.09,28.55-58,59.83.1,32.33,26.43,58.82,58.28,58.69,34-.14,60.33-26.29,60.14-59.77C162.46,66.61,135.93,40.82,102.22,41Z" transform="translate(-25.02 -22.16)"/><path class="cls-3" d="M103.06,171.34c-40.24,0-72.52-31.86-72.08-72,.42-39.07,31.18-70.94,71.66-70.68,42.07.27,70.52,32.51,71.17,70.43C174.54,141.19,141.17,171.45,103.06,171.34ZM101.68,41c-35.53-.57-58.09,28.55-58,59.83.1,32.33,26.43,58.81,58.29,58.69,34-.14,60.33-26.29,60.13-59.78C161.91,66.56,135.38,40.77,101.68,41Z" transform="translate(-25.02 -22.16)"/></g></svg>