<svg id="图层_1" data-name="图层 1" xmlns="http://www.w3.org/2000/svg" viewBox="0 0 183.37 183.24"><defs><style>.cls-1,.cls-2,.cls-3{fill:#fff;}.cls-1,.cls-3{stroke:#6cf;stroke-miterlimit:10;}.cls-1{stroke-width:15px;}.cls-3{stroke-width:13px;}</style></defs><path class="cls-1" d="M40.68,66.39c6.12-14.29,15.8-16.25,29-13.31,26.78,6,53.81,4.44,80.67-.35,3.4-.6,6.07-.55,8.11,2.45s.18,5.14-1.15,7.61c-3.26,6.07-8.65,9.77-14.72,11.95-5.09,1.81-7.37,4.88-8.43,9.79-5.5,25.57-11.6,51-16.46,76.72-2.05,10.81-9.27,8.66-16,8.83-8.1.21-5.62-5.84-6.29-10.46-.82-5.73,2.54-9.92,4.08-14.79,2.78-8.8,1.12-11.18-7.87-11.79-3.36-.23-6.74-.5-10.06-1.06-21.66-3.62-28.64-17.12-20.13-38,2-4.78,2.8-10.07,3.7-15.21.61-3.5-.87-5-5-5.86C53.56,71.51,46.42,70.77,40.68,66.39ZM97.8,114.25c4.31-.33,10.46,2.08,12.2-5.4,1.86-8,3.59-16.11,5.09-24.22.56-3,.51-6.42-3.93-6.81-5.79-.51-11.57-1-17.37-1.33-3.83-.19-6.34,1.72-7.31,5.57-1.18,4.73-2.64,9.4-3.66,14.17C79.84,110.26,82.83,113.91,97.8,114.25Z" transform="translate(-8.31 -7.89)"/><path class="cls-2" d="M40.68,66.63c6.12-14.29,15.8-16.24,29-13.3,26.78,6,53.81,4.44,80.67-.35,3.4-.6,6.07-.55,8.11,2.45s.18,5.14-1.15,7.61C154,69.11,148.64,72.81,142.57,75c-5.09,1.82-7.37,4.89-8.43,9.8-5.5,25.57-11.6,51-16.46,76.71-2.05,10.82-9.27,8.67-16,8.84-8.1.21-5.62-5.85-6.29-10.46-.82-5.74,2.54-9.92,4.08-14.79,2.78-8.8,1.12-11.18-7.87-11.79-3.36-.23-6.74-.5-10.06-1.06-21.66-3.63-28.64-17.12-20.13-38,2-4.79,2.8-10.07,3.7-15.21.61-3.5-.87-5-5-5.86C53.56,71.76,46.42,71,40.68,66.63ZM97.8,114.5c4.31-.33,10.46,2.08,12.2-5.4,1.86-8,3.59-16.11,5.09-24.22.56-3,.51-6.42-3.93-6.81-5.79-.51-11.57-1-17.37-1.33-3.83-.19-6.34,1.72-7.31,5.57-1.18,4.73-2.64,9.4-3.66,14.17C79.84,110.51,82.83,114.16,97.8,114.5Z" transform="translate(-8.31 -7.89)"/><path class="cls-3" d="M100.79,184.62c-48,0-86.49-38-86-85.94.5-46.59,37.19-84.6,85.47-84.29,50.17.32,84.1,38.78,84.88,84C186,148.66,146.25,184.75,100.79,184.62ZM99.14,29.13C56.77,28.46,29.86,63.18,30,100.49c.12,38.56,31.52,70.15,69.52,70,40.57-.16,72-31.35,71.72-71.29C171,59.65,139.34,28.89,99.14,29.13Z" transform="translate(-8.31 -7.89)"/><path class="cls-2" d="M100.79,184.56c-48,0-86.49-38-86-85.94C15.32,52,52,14,100.29,14.33c50.17.32,84.1,38.77,84.88,84C186,148.6,146.25,184.69,100.79,184.56ZM99.14,29.07C56.77,28.4,29.86,63.12,30,100.42c.12,38.56,31.52,70.15,69.52,70,40.57-.17,72-31.35,71.72-71.29C171,59.59,139.34,28.83,99.14,29.07Z" transform="translate(-8.31 -7.89)"/></svg>