<svg id="图层_1" data-name="图层 1" xmlns="http://www.w3.org/2000/svg" viewBox="0 0 6016 3384"><defs><style>.cls-1{fill:#58061a;}.cls-2{fill:#524390;}.cls-3{fill:#232150;}.cls-4{fill:#960f2b;}.cls-5{fill:#417caa;}.cls-6{fill:#7d2567;}</style></defs><path class="cls-1" d="M10207.5,8431.5v460h-6016v-1828c14.9,3.45,29.42,8.49,45,9.2,5.13.24,10.31,2.57,15.19,4.61,6.41,2.68,12.73,3.68,19.45,1.63,6.51-2,13.2-2.71,19.7-.5,11.15,3.79,22.28,3.43,33.51.76,10.84-2.58,21.07-2.1,30.49,4.83a29,29,0,0,0,16.82,5.66c16.59.37,32.58,7,49.49,4.51,3.14-.46,6.59.79,9.83,1.52,15,3.38,29.88,6.88,44.82,10.29,5.19,1.18,10.55,3.64,15.58,3.12,20.16-2.09,39.6,1,59.35,4.59,11,2,22.37,2.85,33.54,4.69,27.6,4.55,54.49,13,82.66,14.46,5.21.27,10.34,2.45,15.48,3.83,17.37,4.65,34.51,10.65,52.16,13.6,14.65,2.46,28.59,5.94,42,12.12a89.1,89.1,0,0,0,14.94,5.67c26.62,6.86,51.15,19,76.39,29.41,19,7.87,37.85,16.79,58.14,21.14a110.35,110.35,0,0,1,29.81,11.08c31.12,16.87,63,31.91,97.65,40.35,12.38,3,24.13,7.37,34.77,14.72a46.51,46.51,0,0,0,14.53,6.45c15.05,3.92,28.48,11.06,41.69,19,15.48,9.26,31.6,17.44,49.33,21.41,12.68,2.84,24.06,8,33.82,16.37,12.62,10.83,27.32,16.29,43.54,18.39,3.3.43,6.58,1.07,9.86,1.65,15.94,2.82,30,9.16,44,17.89,19,11.9,40.95,18.45,61.07,28.62,8.2,4.14,17.11,7.07,25.35,11.52,23.39,12.62,45.88,27.35,72.53,32.77,17.4,3.53,32.46,11.67,46.09,22.86,8.27,6.79,17.12,12.88,27.45,16.11a63.69,63.69,0,0,1,28.19,18.23,68.14,68.14,0,0,0,28,18.67,79.06,79.06,0,0,1,20.93,11.56c15,11.07,29.87,22.36,45.14,33,7.4,5.17,13.55,10.45,14.46,20.24.78,8.46,6.83,12.47,14.43,14.6,4.48,1.26,9.08,2.24,13.36,4,3.42,1.41,4.87,4.57,3.17,8.2-1.11,2.39-3.11,4.37-4.23,6.75-2.45,5.22-1,9.48,3.72,11.66a19,19,0,0,0,5.61,2c11.75,1.32,19.47,7.37,23.81,18.47,2.95,7.55,8.53,13.37,14.46,18.9,10.26,9.57,20.67,18.67,33.5,25,7.06,3.48,13.41,8.68,19.51,13.79,10.18,8.51,19.1,18.75,30,26.07s23.86,11.75,35.63,18q30,15.89,59.69,32.51c20.89,11.71,43,21.43,61.62,36.95a32.68,32.68,0,0,0,10.63,5.41c13.54,4.44,24.8,12.73,36.47,20.48,24.42,16.2,49.05,32.1,73.71,47.94a89.69,89.69,0,0,0,29.33,12.32c26,5.76,52.26,10.65,76,23.84a35.75,35.75,0,0,0,11.31,3.86c27.67,4.65,54.19,13.95,81.51,20,8.44,1.86,16.69,4.58,25,7.06,17.86,5.33,35.55,11.6,54.16,13.67,10.77,1.2,20.88,3.51,30.5,8.64a65.22,65.22,0,0,0,16.76,6.27c15,3.21,30,6.69,45.2,8.32,32,3.44,62.87,11.37,93.23,21.77a126.52,126.52,0,0,0,35.16,7.19c12.11.57,23.61,3.66,35.16,7.07,30.06,8.88,60.68,15.47,91.47,21.26,7.84,1.47,15.59,3.45,23.38,5.19,29.16,6.54,58.29,13,86.57,23,14.4,5.1,30,7,44.14,12.62a318.49,318.49,0,0,0,61.54,17c21.77,3.89,42.8,9.82,63.93,15.79,8.32,2.35,16.31,6,24.7,8,38.82,9.46,77.58,19.25,116.66,27.5,17.64,3.73,35.18,7.3,52.12,13.49,8.12,3,16.25,5.94,24.16,9.4,5.52,2.42,10.87,5.13,17,5.62,9.46.77,18.22,3.87,26.73,7.82,7.91,3.68,16.29,5.78,24.78,7.62,11.08,2.39,22,5.37,33.13,7.58,16.3,3.24,32.59,7.27,49.08,8.59,11.48.91,22.46,1.78,32.77,7.13a47.88,47.88,0,0,0,29.11,4.83,51,51,0,0,1,23.7,2.28c19,6.59,38.73,9.73,58.55,12.56a80.48,80.48,0,0,1,15.57,3.47c35.27,12.64,72.8,15.91,108.59,26.43,6.27,1.84,13.2,1.6,19.84,1.95,8,.42,16,1.06,23.66,3.52,14.72,4.7,30,6.05,45.24,7.9,16.53,2,33.13,3.44,49.69,5.18,28.53,3,56.61,7.14,83.64,18.06s55.17,20,85.23,18.62a31.27,31.27,0,0,1,5.94.8q50.37,7.5,100.73,15c31.56,4.75,59.71,18.34,86.31,35a131.06,131.06,0,0,0,34.28,15.69c15.41,4.37,31,7.52,46.7,10.78,11.83,2.46,23.38,4.16,35.56,3.63,19.94-.85,40-1,58.63,8.39,16.84,8.49,34.35,9.22,52.57,5,15-3.49,30.29-4.55,45.66-1.75a37.77,37.77,0,0,0,17.84-.62,28.5,28.5,0,0,1,21.35,1.72c5.6,2.66,11.65,3.49,17.55,1.5,14.79-5,30.32-4,45.46-6.17a50.72,50.72,0,0,1,21.79,1.28c13.61,4,27.57,4.42,41.6,4.36,18.66-.07,37.29-.16,55.88,2.53,7.12,1,14.58-.09,21.87-.55,21.94-1.38,43.87-3,65.81-4.34,4-.24,8.27-.45,11.89.82,13.74,4.82,27.55,3.4,41.51,1.79,17.87-2.07,35.8-3.61,53.66-5.79,9.36-1.14,18.58-1.61,27.8.66,9.84,2.43,19.78,2.51,29.8,1.38,28.49-3.19,57-5.57,85.75-4.56,6.65.24,13.33-.08,20,.06,19.47.39,38.53-2.38,57.38-7.07,5.15-1.28,10.45-2.74,15.68-2.72,12.08,0,23.88-2,35.77-3.5,6.57-.85,13.32-1.54,19.88-1a87.33,87.33,0,0,0,29.72-2.26,99.7,99.7,0,0,1,41.66-1.53c15.88,2.64,31.89,2.65,47.85,1.14,10-.95,20-1.22,29.9.27,36.42,5.49,73.1,4.78,109.75,4.54,11.32-.08,22.75.19,33.93-1.27a386.56,386.56,0,0,1,49.85-2.76,211.77,211.77,0,0,0,25.95-1.1,111.09,111.09,0,0,1,33.81,1c6.55,1.2,13.14,2.38,19.76,3a64.44,64.44,0,0,0,13.88-.32,6.27,6.27,0,0,0,4.18-3.63c1-2.91-1.06-5.37-3.58-6.29a39.27,39.27,0,0,0-11.51-2.58c-7.47-.31-14.65-1.63-21.24-5-14.22-7.28-29.33-12.93-42.36-22.38-4.57-3.32-11.11-4.23-14.38-11.09,8.13-3.85,16.15-2.77,23.9-2.78,75.32-.13,150.64-.29,226,0,18.77.06,37.2-2.56,55.7-4.92,9.75-1.25,17.75-5.55,22.48-14.67a270,270,0,0,1,67.69,4c9.14,1.73,18.47,2.62,27.75,3.43,46.43,4,92.72,8,137.53,22.76,36.72,12.08,73.25,24.5,108.61,40.16C10181.24,8428.16,10193.8,8432.2,10207.5,8431.5Z" transform="translate(-4191.5 -5507.5)"/><path class="cls-2" d="M10207.5,7651.5v516a64.82,64.82,0,0,1-26.77-7.46c-9.46-4.91-19.17-9.41-28.31-14.86-35-20.89-72.33-37.09-108.8-55-11.94-5.87-24.42-10.73-36.88-15.42q-83.31-31.36-169.21-54.77c-68.16-18.67-136.75-35.33-206.45-47.31-28.23-4.85-56-12.52-84.42-16-62.83-7.65-124.69-21.62-187.88-27.16-32.44-2.84-64.52-9.15-97.22-11.14-40.53-2.46-80.89-7.74-121.33-11.72-18.55-1.83-37.3-2.42-55.65-5.45-30.31-5-60.94-6.31-91.39-9.57-23.17-2.48-46.5-3.61-69.64-6.28-27.16-3.12-54.21-6.87-81.65-6a105.45,105.45,0,0,1-19.94-1.11c-16.55-2.63-33.17-2.83-49.85-2.78-25.32.06-50.65.08-76-.07-8.66-.05-17.34-.24-25.95-1.05-19.29-1.82-38.5-2.32-57.83-.06a101.06,101.06,0,0,1-25.89-.08,297.85,297.85,0,0,0-53.85-2.6c-31.44,1.22-62.6-2.59-93.71-5.43-55.86-5.1-110.41-18.26-165-30.68-40.93-9.3-81.56-19.89-122.5-29.16-45.56-10.31-90.15-24.06-134.84-37.37-46.61-13.89-92.7-29.49-139-44.26q-68.56-21.84-137.17-43.56c-23.5-7.47-46.77-15.77-70.51-22.35-28.32-7.85-56.45-15.88-82.52-29.84a50.27,50.27,0,0,0-9.28-3.69c-36.47-11-70.51-28.19-106-41.82-44.77-17.2-89-35.81-133.5-53.73a237.15,237.15,0,0,0-36.36-10.84c-25.34-5.74-50.94-10.75-75.77-18.27q-31.57-9.56-63.34-18.33c-20.54-5.71-40.86-12.22-61.22-18.55-42.06-13.06-82.3-31.08-123.87-45.46-6.9-2.39-13.9-5-21.07-6-13.5-1.81-25.54-7.06-37.64-12.81-40.32-19.16-80.56-38.52-122.51-54a155.08,155.08,0,0,1-25.33-11.79A250.1,250.1,0,0,0,6735.7,7316c-32.25-12.68-63.7-27.09-95.38-41.1-66.69-29.51-129.35-66.1-190.73-104.92-52.94-33.48-105.67-67.24-160.55-97.51-4.66-2.58-9.24-5.31-13.75-8.15q-40.53-25.62-81-51.32c-25.39-16.05-52.14-29.52-78.9-43.09-29.15-14.78-58.54-29.27-88.79-41.25-48.92-19.36-95.24-44.83-145.41-61.13a52.79,52.79,0,0,1-7.2-3.46,396.89,396.89,0,0,0-59.17-24.14c-9.53-3-19.09-6.06-28.34-9.82-40.11-16.34-80.49-31.84-122.16-43.88-29.47-8.51-58.14-19.29-86.72-30.47-29.75-11.63-60.51-20.77-89.89-33.23-27.88-11.81-57-19.39-86.21-24.87-35.35-6.62-70.53-14.16-105.95-20.44-50.14-8.88-98.66-22.49-144.18-45.8a74.37,74.37,0,0,0-11.1-4.51c-17.8-5.73-34.67-13.71-51.95-20.71-56.21-22.8-105.15-57.39-153.23-93.3-24-17.91-46.67-37.58-70.06-56.3-22.85-18.29-46.64-35.51-68.62-54.8a822.2,822.2,0,0,0-112.53-82.81c-39.86-24.46-76.89-52.76-115.31-79.17-4.38-3-8.26-6.73-12.49-10-5.81-4.44-11.52-9.05-17.64-13-29.58-19.27-59-38.74-89-57.41-32.23-20.09-62.72-42.84-95.71-61.78-16.74-9.61-32.58-20.78-48.77-31.34a424.87,424.87,0,0,0-68.89-36.23c-14.19-5.92-29-9.8-44.55-10.5v-480c25.21,6.45,50.17,13.59,73.81,24.79,4.73,2.24,10.12,4.28,15.22,4.32,23.9.22,45.68,8.8,67.68,16.35,27.72,9.51,55.22,19.67,82.78,29.64,5.62,2,11.46,3.86,16.59,6.83,14.55,8.42,30.28,13.78,46.09,19.08,16.42,5.51,32.87,11,49.09,17.07a281.2,281.2,0,0,0,51.95,14.25c17.19,2.92,34.05,8.25,48.52,17.82a427.28,427.28,0,0,0,72.29,38.28,67.57,67.57,0,0,1,10.68,5.46c30.48,19.65,64.59,31.56,97.56,45.88,4.95,2.15,10.15,4.07,15.47,3.4,13.6-1.73,24.68,3.86,35.47,10.91,7.26,4.73,14.61,9.31,22,13.91,32.19,20.12,64.27,40.44,96.64,60.28,29.53,18.1,59.21,36,90.14,51.66,11.28,5.72,22.46,12.06,34.39,16,17.15,5.61,33.66,12.67,50.46,19.09,28.64,10.94,57.25,21.95,86.14,32.19,20.74,7.35,41.33,15,61.74,23.24,21.59,8.74,43.7,16.19,65.53,24.35,20,7.47,40.23,14.29,59.68,22.91,46.3,20.51,92.22,41.87,138.24,63,13.92,6.4,27.66,13.21,41.5,19.8q56.85,27,113.73,54c19.28,9.09,39.6,16.35,57.93,27,27.18,15.86,56.49,27,84.3,41.39,16.56,8.54,33.44,16.5,50.27,24.5,29.48,14,59.26,27.44,88.51,41.92,34,16.83,67.46,34.82,101.42,51.75,22.05,11,44.83,20.51,66.82,31.59,26.75,13.49,53,28,79.51,41.93a64.27,64.27,0,0,0,11,4.67c44.78,13.65,85.75,36.52,129.24,53.31a69.5,69.5,0,0,1,8.92,4.48c34.42,19.32,70.74,34.23,108,46.88,8.89,3,17.51,6.45,24.91,12.41,6.88,5.53,14.95,8.52,23.26,11.23s16.54,5.42,24.21,9.33c20.15,10.28,40.3,20.66,59.81,32.09,11,6.47,22.26,12,34.4,15.77,12.78,4,24.64,9.88,36.29,16.52,17.94,10.23,35.68,21.32,54.75,28.91,26.17,10.42,50.31,24.5,75,37.5,30.07,15.82,59.43,33,91,45.77a58.87,58.87,0,0,1,10.66,5.46c15.53,10.44,32.4,18.48,48.6,27.72,29.56,16.86,61.39,28.89,91.65,44.27,26.09,13.26,52.87,25.37,80.87,34.37a31.79,31.79,0,0,1,7.3,3.22c18.15,11.53,38.43,18.37,58.09,26.54,33.85,14.06,68,27.5,101.63,42,47.8,20.52,98.06,34.6,145.42,56.23a77.29,77.29,0,0,0,9.4,3.37c47.83,14.75,93.93,34.21,140.44,52.41,32.24,12.61,64.73,24.69,96.93,37.39,38.38,15.12,75.33,33.92,115.16,45.46,27.47,7.95,54.92,16.14,81,28.13a15,15,0,0,0,1.91.57c24.85,7.48,50.74,11.44,74.68,22a31.9,31.9,0,0,0,5.81,1.47c35,8.17,70.41,14.87,104.91,25.3a66,66,0,0,0,9.8,1.9c58.68,8.42,117.35,17,176.07,25.13,27,3.77,54.26,6.38,81.3,10.19,46.84,6.58,93.57,13.9,140.41,20.45,17.23,2.41,34.05,6.31,50.84,10.63,43.3,11.11,85.55,25.59,127.86,39.81,25.25,8.48,49.93,18.67,75.16,27.2q49.25,16.65,99,31.8c34.42,10.52,69.24,19.66,104.51,27,27.4,5.7,54.8,11.38,82.17,17.23,20.19,4.32,40.46,8.4,60.47,13.48,37.44,9.5,74.8,19.18,111.33,32.09,37.77,13.34,75.16,27.3,110.64,46,2.35,1.23,4.95,2,7.34,3.16,20.35,9.95,41.16,19.07,60.9,30.1,42,23.47,85.19,44,131.34,58.19,41.07,12.6,83,19.74,125.87,20.27,60.65.75,121.32.22,182,.41a265.37,265.37,0,0,1,31.91,1.59,322.59,322.59,0,0,0,39.88,2.35q100,0,200,.06c10.64,0,21.39.13,31.91,1.53A276.7,276.7,0,0,0,10207.5,7651.5Z" transform="translate(-4191.5 -5507.5)"/><path class="cls-3" d="M5675.5,5507.5h4532v1200c-8.56-5.16-17-10.61-25.7-15.42-32.19-17.68-65.74-32.4-100.09-45.35-75.71-28.56-153.92-47.94-233.18-63.37-132.34-25.75-266.17-40.1-400.31-52-71-6.33-142.15-11.58-212.88-20.83-70.15-9.18-139.54-22-207.29-42.87-59.95-18.5-118.27-41.33-175.82-66.16C8791,6375,8730,6348.22,8668.9,6321.64a943.26,943.26,0,0,0-194.19-61c-31.38-6.17-62.8-12.25-94.32-17.7-41.75-7.23-81.44-20.09-118.51-40.82-11-6.18-22.4-11.83-33.47-18-53.55-29.64-110.72-49.13-170.53-61.37-60.27-12.33-121.29-17.69-182.66-19.63-100.08-3.18-199.89,2.26-299.64,9.55-78.46,5.74-157,10-235.7,9.37-37.3-.29-74.67-1.72-111.86-4.57-46.49-3.57-92.86-8.85-139.23-13.89-71.62-7.78-142.69-19-213-35-83.86-19-166.74-42-250.06-63.15-25.83-6.56-51.69-13-77.54-19.44l-43.1-32.42c-88.56-66.54-180.88-127.45-275.47-185A2679.3,2679.3,0,0,0,5894,5595.54c-64.32-27.64-129.58-52.89-195.29-77.05C5690.7,5515.54,5681.9,5514,5675.5,5507.5Z" transform="translate(-4191.5 -5507.5)"/><path class="cls-4" d="M9827.32,8352.36c-4.73,9.12-12.73,13.42-22.48,14.67-18.5,2.36-36.93,5-55.7,4.92-75.33-.24-150.65-.08-226,0-7.75,0-15.77-1.07-23.9,2.78,3.27,6.86,9.81,7.77,14.38,11.09,13,9.45,28.14,15.1,42.36,22.38,6.59,3.37,13.77,4.69,21.24,5a39.27,39.27,0,0,1,11.51,2.58c2.52.92,4.57,3.38,3.58,6.29a6.27,6.27,0,0,1-4.18,3.63,64.44,64.44,0,0,1-13.88.32c-6.62-.63-13.21-1.81-19.76-3a111.09,111.09,0,0,0-33.81-1,211.77,211.77,0,0,1-25.95,1.1,386.56,386.56,0,0,0-49.85,2.76c-11.18,1.46-22.61,1.19-33.93,1.27-36.65.24-73.33,1-109.75-4.54-9.93-1.49-19.88-1.22-29.9-.27-16,1.51-32,1.5-47.85-1.14a99.7,99.7,0,0,0-41.66,1.53,87.33,87.33,0,0,1-29.72,2.26c-6.56-.57-13.31.12-19.88,1-11.89,1.53-23.69,3.54-35.77,3.5-5.23,0-10.53,1.44-15.68,2.72-18.85,4.69-37.91,7.46-57.38,7.07-6.66-.14-13.34.18-20-.06-28.73-1-57.26,1.37-85.75,4.56-10,1.13-20,1.05-29.8-1.38-9.22-2.27-18.44-1.8-27.8-.66-17.86,2.18-35.79,3.72-53.66,5.79-14,1.61-27.77,3-41.51-1.79-3.62-1.27-7.93-1.06-11.89-.82-21.94,1.34-43.87,3-65.81,4.34-7.29.46-14.75,1.58-21.87.55-18.59-2.69-37.22-2.6-55.88-2.53-14,.06-28-.31-41.6-4.36a50.72,50.72,0,0,0-21.79-1.28c-15.14,2.13-30.67,1.19-45.46,6.17-5.9,2-12,1.16-17.55-1.5a28.5,28.5,0,0,0-21.35-1.72,37.77,37.77,0,0,1-17.84.62c-15.37-2.8-30.65-1.74-45.66,1.75-18.22,4.24-35.73,3.51-52.57-5-18.62-9.39-38.69-9.24-58.63-8.39-12.18.53-23.73-1.17-35.56-3.63-15.66-3.26-31.29-6.41-46.7-10.78a131.06,131.06,0,0,1-34.28-15.69c-26.6-16.7-54.75-30.29-86.31-35q-50.35-7.59-100.73-15a31.27,31.27,0,0,0-5.94-.8c-30.06,1.34-58.08-7.65-85.23-18.62s-55.11-15.07-83.64-18.06c-16.56-1.74-33.16-3.17-49.69-5.18-15.2-1.85-30.52-3.2-45.24-7.9-7.69-2.46-15.64-3.1-23.66-3.52-6.64-.35-13.57-.11-19.84-1.95-35.79-10.52-73.32-13.79-108.59-26.43a80.48,80.48,0,0,0-15.57-3.47c-19.82-2.83-39.54-6-58.55-12.56a51,51,0,0,0-23.7-2.28,47.88,47.88,0,0,1-29.11-4.83c-10.31-5.35-21.29-6.22-32.77-7.13-16.49-1.32-32.78-5.35-49.08-8.59-11.11-2.21-22.05-5.19-33.13-7.58-8.49-1.84-16.87-3.94-24.78-7.62-8.51-4-17.27-7.05-26.73-7.82-6.1-.49-11.45-3.2-17-5.62-7.91-3.46-16-6.44-24.16-9.4-16.94-6.19-34.48-9.76-52.12-13.49-39.08-8.25-77.84-18-116.66-27.5-8.39-2-16.38-5.7-24.7-8-21.13-6-42.16-11.9-63.93-15.79a318.49,318.49,0,0,1-61.54-17c-14.15-5.62-29.74-7.52-44.14-12.62-28.28-10-57.41-16.46-86.57-23-7.79-1.74-15.54-3.72-23.38-5.19-30.79-5.79-61.41-12.38-91.47-21.26-11.55-3.41-23.05-6.5-35.16-7.07a126.52,126.52,0,0,1-35.16-7.19c-30.36-10.4-61.2-18.33-93.23-21.77-15.2-1.63-30.22-5.11-45.2-8.32a65.22,65.22,0,0,1-16.76-6.27c-9.62-5.13-19.73-7.44-30.5-8.64-18.61-2.07-36.3-8.34-54.16-13.67-8.29-2.48-16.54-5.2-25-7.06-27.32-6-53.84-15.32-81.51-20a35.75,35.75,0,0,1-11.31-3.86c-23.7-13.19-50-18.08-76-23.84a89.69,89.69,0,0,1-29.33-12.32c-24.66-15.84-49.29-31.74-73.71-47.94-11.67-7.75-22.93-16-36.47-20.48a32.68,32.68,0,0,1-10.63-5.41c-18.64-15.52-40.73-25.24-61.62-36.95q-29.64-16.62-59.69-32.51c-11.77-6.23-24.68-10.62-35.63-18s-19.84-17.56-30-26.07c-6.1-5.11-12.45-10.31-19.51-13.79-12.83-6.29-23.24-15.39-33.5-25-5.93-5.53-11.51-11.35-14.46-18.9-4.34-11.1-12.06-17.15-23.81-18.47a19,19,0,0,1-5.61-2c-4.73-2.18-6.17-6.44-3.72-11.66,1.12-2.38,3.12-4.36,4.23-6.75,1.7-3.63.25-6.79-3.17-8.2-4.28-1.76-8.88-2.74-13.36-4-7.6-2.13-13.65-6.14-14.43-14.6-.91-9.79-7.06-15.07-14.46-20.24-15.27-10.68-30.13-22-45.14-33a79.06,79.06,0,0,0-20.93-11.56,68.14,68.14,0,0,1-28-18.67,63.69,63.69,0,0,0-28.19-18.23c-10.33-3.23-19.18-9.32-27.45-16.11-13.63-11.19-28.69-19.33-46.09-22.86-26.65-5.42-49.14-20.15-72.53-32.77-8.24-4.45-17.15-7.38-25.35-11.52-20.12-10.17-42.07-16.72-61.07-28.62-13.92-8.73-28-15.07-44-17.89-3.28-.58-6.56-1.22-9.86-1.65-16.22-2.1-30.92-7.56-43.54-18.39-9.76-8.38-21.14-13.53-33.82-16.37-17.73-4-33.85-12.15-49.33-21.41-13.21-7.9-26.64-15-41.69-19a46.51,46.51,0,0,1-14.53-6.45c-10.64-7.35-22.39-11.7-34.77-14.72-34.62-8.44-66.53-23.48-97.65-40.35a110.35,110.35,0,0,0-29.81-11.08c-20.29-4.35-39.11-13.27-58.14-21.14-25.24-10.43-49.77-22.55-76.39-29.41a89.1,89.1,0,0,1-14.94-5.67c-13.41-6.18-27.35-9.66-42-12.12-17.65-2.95-34.79-8.95-52.16-13.6-5.14-1.38-10.27-3.56-15.48-3.83-28.17-1.45-55.06-9.91-82.66-14.46-11.17-1.84-22.54-2.71-33.54-4.69-19.75-3.57-39.19-6.68-59.35-4.59-5,.52-10.39-1.94-15.58-3.12-14.94-3.41-29.87-6.91-44.82-10.29-3.24-.73-6.69-2-9.83-1.52-16.91,2.52-32.9-4.14-49.49-4.51a29,29,0,0,1-16.82-5.66c-9.42-6.93-19.65-7.41-30.49-4.83-11.23,2.67-22.36,3-33.51-.76-6.5-2.21-13.19-1.48-19.7.5-6.72,2.05-13,1.05-19.45-1.63-4.88-2-10.06-4.37-15.19-4.61-15.54-.71-30.06-5.75-45-9.2v-732a165.77,165.77,0,0,0,31.71,3.77,74.36,74.36,0,0,1,25.4,4.74c33.07,12.34,66.42,24,99.3,36.77,28.53,11.11,57.15,22,85.19,34.44,18.91,8.38,37.82,16.41,55.18,27.82,4.94,3.25,10.86,5,16.35,7.45,15.31,6.73,30,14.56,43,25.21,24.2,19.81,49.85,37.71,73.48,58.34,22,19.24,45.94,36.28,68.26,55.34,24.25,20.72,47.82,42.55,75.24,59.39,4.48,2.75,8.24,6.72,12.22,10.27,26.35,23.51,54.71,44.59,81.87,67.14s56.92,41.71,85.89,61.86q25.41,17.69,51.93,33.77c45.15,27.41,94.41,46.43,142.23,68.35,30.27,13.88,61.69,25.23,91.87,39.29,52.35,24.39,107,40.78,163.76,50.53,19.69,3.38,39.47,6.26,59.22,9.33,23.71,3.68,47.44,7.16,71.12,11,49.36,8.07,97.64,21.25,146.59,31.29,37.86,7.76,75.71,15.56,113.65,22.88,42.51,8.21,85.18,15.56,127.65,23.91,56.88,11.18,113.65,22.93,170.46,34.53,4.54.93,9,2.49,13.43,3.84,9.55,2.88,19,6,28.65,8.69,28.91,8,58.08,15.07,86.78,23.72,57.43,17.29,114.65,35.3,171.91,53.17,138.82,43.31,276,91,406.77,155.32,3,1.47,6.08,2.73,9.1,4.14,58.56,27.38,117.45,54.09,175.6,82.31,73.16,35.49,145.85,71.92,216.69,111.95,50.47,28.52,100.75,57.51,152.21,84.17,80.48,41.69,161.58,82.22,244.07,119.85,34.54,15.76,69.14,31.52,105.46,43,15.88,5,31.83,9.91,47.36,15.88,60.93,23.44,121.27,48.39,182.38,71.41,56.8,21.39,114.69,39.32,172.27,58.27,29.74,9.79,59.73,18.94,89.18,29.54,45.15,16.25,90.1,33.07,136.35,46,46.83,13.1,93.32,27.6,141.29,36.33,32.12,5.85,64.28,11.51,96.34,17.68,62.17,12,123.59,27.35,185.66,39.93,103.35,20.93,207.8,34,312.08,48.38,58.06,8,116.37,14.31,174.41,22.49,40.88,5.76,81.5,13.38,122.23,20.22a83.22,83.22,0,0,1,9.74,2.23c33.84,9.95,68.77,16,101.72,29.12,17.32,6.91,35.16,12.49,52.69,18.87,6.28,2.29,13.7,4.75,14.13,12.49.67,12.13,8.55,15.56,18.14,17.73,13,2.94,25.92,6.46,39.07,8.42,29.11,4.34,57.36,12.2,85.58,20.1,34.66,9.7,69.38,18.94,104.92,25C9795.65,8342,9811.94,8345.63,9827.32,8352.36Z" transform="translate(-4191.5 -5507.5)"/><path class="cls-5" d="M5675.5,5507.5c6.4,6.49,15.2,8,23.22,11,65.71,24.16,131,49.41,195.29,77.05a2679.3,2679.3,0,0,1,335.65,173.06c94.59,57.57,186.91,118.48,275.47,185q21.55,16.2,43.11,32.43c3.93,3.6,7.7,7.38,11.81,10.74,26.31,21.53,51.51,44.29,76.5,67.32,38.24,35.24,77.75,69,120.58,98.61,71,49.12,146.08,90.63,227.95,118.59,47.24,16.13,95.35,29.76,143.05,44.51,12.49,6.54,26.3,9.23,39.6,13.36,77.54,24.12,154.74,49.15,230.23,79.3a758.06,758.06,0,0,1,152.76,81.83q20.49,14.25,40.91,28.59c3.37,3.21,6.46,6.78,10.14,9.57,56.27,42.76,109.47,89.26,163.59,134.62,39.2,32.85,82.21,58.88,128.71,79.62,43.89,19.57,89.14,35.35,134.89,49.94,33.66,10.75,67.83,19.54,101.88,28.88,82.94,22.78,164.11,51,244.62,81.24,64,24,123.79,55.6,180.57,93.58,49.83,33.33,99.07,67.57,150.35,98.73,42.77,26,86.33,50.29,133.16,68.36,63.66,24.56,129.45,41.21,196.39,53.63,37.34,6.93,75,12.12,112,20.57,59.87,13.64,115.72,36,164,74.94,23.4,18.87,44.27,40.56,63.95,63.13,23.24,26.67,48.44,51.35,73,76.74,18.22,18.87,39.47,33.68,61.25,47.9a148.17,148.17,0,0,0,41.87,18.54,272,272,0,0,0,65,10.07c82.65,2.32,165.12-4.13,247.71-4.69,4,0,8-.78,12-1,12-.76,23.91-1.91,35.88-2,31.32-.31,62.64-.15,93.95-.21,14,0,27.91,1.16,41.87,2.41,27.84,2.51,55.78,4,83.67,6,9.3.65,18.61,1.25,27.86,2.29,15.89,1.78,31.74,3.88,47.61,5.85v104a276.7,276.7,0,0,1-47.87-2c-10.52-1.4-21.27-1.51-31.91-1.53q-100-.19-200-.06a322.59,322.59,0,0,1-39.88-2.35A265.37,265.37,0,0,0,9856,7644c-60.66-.19-121.33.34-182-.41-42.84-.53-84.8-7.67-125.87-20.27-46.15-14.15-89.31-34.72-131.34-58.19-19.74-11-40.55-20.15-60.9-30.1-2.39-1.17-5-1.93-7.34-3.16-35.48-18.72-72.87-32.68-110.64-46-36.53-12.91-73.89-22.59-111.33-32.09-20-5.08-40.28-9.16-60.47-13.48-27.37-5.85-54.77-11.53-82.17-17.23-35.27-7.33-70.09-16.47-104.51-27q-49.71-15.21-99-31.8c-25.23-8.53-49.91-18.72-75.16-27.2-42.31-14.22-84.56-28.7-127.86-39.81-16.79-4.32-33.61-8.22-50.84-10.63-46.84-6.55-93.57-13.87-140.41-20.45-27-3.81-54.25-6.42-81.3-10.19-58.72-8.16-117.39-16.71-176.07-25.13a66,66,0,0,1-9.8-1.9c-34.5-10.43-69.88-17.13-104.91-25.3a31.9,31.9,0,0,1-5.81-1.47c-23.94-10.6-49.83-14.56-74.68-22a15,15,0,0,1-1.91-.57c-26.1-12-53.55-20.18-81-28.13-39.83-11.54-76.78-30.34-115.16-45.46-32.2-12.7-64.69-24.78-96.93-37.39-46.51-18.2-92.61-37.66-140.44-52.41a77.29,77.29,0,0,1-9.4-3.37c-47.36-21.63-97.62-35.71-145.42-56.23-33.67-14.47-67.78-27.91-101.63-42-19.66-8.17-39.94-15-58.09-26.54a31.79,31.79,0,0,0-7.3-3.22c-28-9-54.78-21.11-80.87-34.37-30.26-15.38-62.09-27.41-91.65-44.27-16.2-9.24-33.07-17.28-48.6-27.72a58.87,58.87,0,0,0-10.66-5.46c-31.59-12.79-60.95-29.95-91-45.77-24.71-13-48.85-27.08-75-37.5-19.07-7.59-36.81-18.68-54.75-28.91-11.65-6.64-23.51-12.52-36.29-16.52-12.14-3.8-23.36-9.3-34.4-15.77-19.51-11.43-39.66-21.81-59.81-32.09-7.67-3.91-16-6.65-24.21-9.33s-16.38-5.7-23.26-11.23c-7.4-6-16-9.4-24.91-12.41-37.3-12.65-73.62-27.56-108-46.88a69.5,69.5,0,0,0-8.92-4.48c-43.49-16.79-84.46-39.66-129.24-53.31a64.27,64.27,0,0,1-11-4.67c-26.51-14-52.76-28.44-79.51-41.93-22-11.08-44.77-20.59-66.82-31.59-34-16.93-67.4-34.92-101.42-51.75-29.25-14.48-59-27.9-88.51-41.92-16.83-8-33.71-16-50.27-24.5-27.81-14.36-57.12-25.53-84.3-41.39-18.33-10.69-38.65-18-57.93-27q-56.94-26.85-113.73-54c-13.84-6.59-27.58-13.4-41.5-19.8-46-21.14-91.94-42.5-138.24-63-19.45-8.62-39.72-15.44-59.68-22.91-21.83-8.16-43.94-15.61-65.53-24.35-20.41-8.25-41-15.89-61.74-23.24-28.89-10.24-57.5-21.25-86.14-32.19-16.8-6.42-33.31-13.48-50.46-19.09-11.93-3.91-23.11-10.25-34.39-16-30.93-15.67-60.61-33.56-90.14-51.66-32.37-19.84-64.45-40.16-96.64-60.28-7.35-4.6-14.7-9.18-22-13.91-10.79-7.05-21.87-12.64-35.47-10.91-5.32.67-10.52-1.25-15.47-3.4-33-14.32-67.08-26.23-97.56-45.88a67.57,67.57,0,0,0-10.68-5.46,427.28,427.28,0,0,1-72.29-38.28c-14.47-9.57-31.33-14.9-48.52-17.82a281.2,281.2,0,0,1-51.95-14.25c-16.22-6.08-32.67-11.56-49.09-17.07-15.81-5.3-31.54-10.66-46.09-19.08-5.13-3-11-4.79-16.59-6.83-27.56-10-55.06-20.13-82.78-29.64-22-7.55-43.78-16.13-67.68-16.35-5.1,0-10.49-2.08-15.22-4.32-23.64-11.2-48.6-18.34-73.81-24.79v-32Z" transform="translate(-4191.5 -5507.5)"/><path class="cls-6" d="M9827.32,8352.36c-15.38-6.73-31.67-10.36-48.06-13.14-35.54-6-70.26-15.28-104.92-25-28.22-7.9-56.47-15.76-85.58-20.1-13.15-2-26.07-5.48-39.07-8.42-9.59-2.17-17.47-5.6-18.14-17.73-.43-7.74-7.85-10.2-14.13-12.49-17.53-6.38-35.37-12-52.69-18.87-32.95-13.15-67.88-19.17-101.72-29.12a83.22,83.22,0,0,0-9.74-2.23c-40.73-6.84-81.35-14.46-122.23-20.22-58-8.18-116.35-14.46-174.41-22.49-104.28-14.43-208.73-27.45-312.08-48.38-62.07-12.58-123.49-28-185.66-39.93-32.06-6.17-64.22-11.83-96.34-17.68-48-8.73-94.46-23.23-141.29-36.33-46.25-12.95-91.2-29.77-136.35-46-29.45-10.6-59.44-19.75-89.18-29.54-57.58-18.95-115.47-36.88-172.27-58.27-61.11-23-121.45-48-182.38-71.41-15.53-6-31.48-10.86-47.36-15.88-36.32-11.5-70.92-27.26-105.46-43-82.49-37.63-163.59-78.16-244.07-119.85-51.46-26.66-101.74-55.65-152.21-84.17-70.84-40-143.53-76.46-216.69-111.95-58.15-28.22-117-54.93-175.6-82.31-3-1.41-6.11-2.67-9.1-4.14-130.81-64.29-267.95-112-406.77-155.32-57.26-17.87-114.48-35.88-171.91-53.17-28.7-8.65-57.87-15.76-86.78-23.72-9.62-2.65-19.1-5.81-28.65-8.69-4.46-1.35-8.89-2.91-13.43-3.84-56.81-11.6-113.58-23.35-170.46-34.53-42.47-8.35-85.14-15.7-127.65-23.91-37.94-7.32-75.79-15.12-113.65-22.88-48.95-10-97.23-23.22-146.59-31.29-23.68-3.87-47.41-7.35-71.12-11-19.75-3.07-39.53-6-59.22-9.33-56.76-9.75-111.41-26.14-163.76-50.53-30.18-14.06-61.6-25.41-91.87-39.29-47.82-21.92-97.08-40.94-142.23-68.35q-26.46-16.06-51.93-33.77c-29-20.15-58.8-39.38-85.89-61.86s-55.52-43.63-81.87-67.14c-4-3.55-7.74-7.52-12.22-10.27-27.42-16.84-51-38.67-75.24-59.39-22.32-19.06-46.23-36.1-68.26-55.34-23.63-20.63-49.28-38.53-73.48-58.34-13-10.65-27.67-18.48-43-25.21-5.49-2.42-11.41-4.2-16.35-7.45-17.36-11.41-36.27-19.44-55.18-27.82-28-12.43-56.66-23.33-85.19-34.44-32.88-12.81-66.23-24.43-99.3-36.77a74.36,74.36,0,0,0-25.4-4.74,165.77,165.77,0,0,1-31.71-3.77v-312c15.51.7,30.36,4.58,44.55,10.5a424.87,424.87,0,0,1,68.89,36.23c16.19,10.56,32,21.73,48.77,31.34,33,18.94,63.48,41.69,95.71,61.78,30,18.67,59.42,38.14,89,57.41,6.12,4,11.83,8.6,17.64,13,4.23,3.24,8.11,7,12.49,10,38.42,26.41,75.45,54.71,115.31,79.17a822.2,822.2,0,0,1,112.53,82.81c22,19.29,45.77,36.51,68.62,54.8,23.39,18.72,46.07,38.39,70.06,56.3,48.08,35.91,97,70.5,153.23,93.3,17.28,7,34.15,15,51.95,20.71a74.37,74.37,0,0,1,11.1,4.51c45.52,23.31,94,36.92,144.18,45.8,35.42,6.28,70.6,13.82,105.95,20.44,29.25,5.48,58.33,13.06,86.21,24.87,29.38,12.46,60.14,21.6,89.89,33.23,28.58,11.18,57.25,22,86.72,30.47,41.67,12,82.05,27.54,122.16,43.88,9.25,3.76,18.81,6.81,28.34,9.82A396.89,396.89,0,0,1,5874,6864a52.79,52.79,0,0,0,7.2,3.46c50.17,16.3,96.49,41.77,145.41,61.13,30.25,12,59.64,26.47,88.79,41.25,26.76,13.57,53.51,27,78.9,43.09q40.53,25.64,81,51.32c4.51,2.84,9.09,5.57,13.75,8.15,54.88,30.27,107.61,64,160.55,97.51,61.38,38.82,124,75.41,190.73,104.92,31.68,14,63.13,28.42,95.38,41.1a250.1,250.1,0,0,1,35.78,17.74,155.08,155.08,0,0,0,25.33,11.79c41.95,15.49,82.19,34.85,122.51,54,12.1,5.75,24.14,11,37.64,12.81,7.17,1,14.17,3.63,21.07,6,41.57,14.38,81.81,32.4,123.87,45.46,20.36,6.33,40.68,12.84,61.22,18.55q31.77,8.84,63.34,18.33c24.83,7.52,50.43,12.53,75.77,18.27a237.15,237.15,0,0,1,36.36,10.84c44.5,17.92,88.73,36.53,133.5,53.73,35.45,13.63,69.49,30.79,106,41.82a50.27,50.27,0,0,1,9.28,3.69c26.07,14,54.2,22,82.52,29.84,23.74,6.58,47,14.88,70.51,22.35q68.58,21.81,137.17,43.56c46.34,14.77,92.43,30.37,139,44.26,44.69,13.31,89.28,27.06,134.84,37.37,40.94,9.27,81.57,19.86,122.5,29.16,54.58,12.42,109.13,25.58,165,30.68,31.11,2.84,62.27,6.65,93.71,5.43a297.85,297.85,0,0,1,53.85,2.6,101.06,101.06,0,0,0,25.89.08c19.33-2.26,38.54-1.76,57.83.06,8.61.81,17.29,1,25.95,1.05,25.33.15,50.66.13,76,.07,16.68-.05,33.3.15,49.85,2.78a105.45,105.45,0,0,0,19.94,1.11c27.44-.89,54.49,2.86,81.65,6,23.14,2.67,46.47,3.8,69.64,6.28,30.45,3.26,61.08,4.56,91.39,9.57,18.35,3,37.1,3.62,55.65,5.45,40.44,4,80.8,9.26,121.33,11.72,32.7,2,64.78,8.3,97.22,11.14,63.19,5.54,125,19.51,187.88,27.16,28.37,3.45,56.19,11.12,84.42,16,69.7,12,138.29,28.64,206.45,47.31q85.88,23.54,169.21,54.77c12.46,4.69,24.94,9.55,36.88,15.42,36.47,17.91,73.81,34.11,108.8,55,9.14,5.45,18.85,9.95,28.31,14.86a64.82,64.82,0,0,0,26.77,7.46v264c-13.7.7-26.26-3.34-38.6-8.8-35.36-15.66-71.89-28.08-108.61-40.16-44.81-14.75-91.1-18.72-137.53-22.76-9.28-.81-18.61-1.7-27.75-3.43A270,270,0,0,0,9827.32,8352.36Z" transform="translate(-4191.5 -5507.5)"/><path class="cls-4" d="M7128.14,6325.83c-47.71-14.76-95.82-28.39-143.06-44.52-81.87-28-157-69.47-227.95-118.59-42.83-29.64-82.34-63.37-120.58-98.61-25-23-50.19-45.79-76.5-67.32-4.11-3.36-7.88-7.14-11.81-10.74,25.84,6.47,51.7,12.87,77.53,19.43,83.32,21.18,166.2,44.11,250.06,63.15,70.27,15.95,141.34,27.18,213,35,46.37,5,92.74,10.32,139.23,13.89,37.19,2.85,74.56,4.28,111.86,4.57,78.69.62,157.24-3.63,235.7-9.37,99.75-7.29,199.56-12.73,299.64-9.55,61.37,1.94,122.39,7.3,182.66,19.63,59.81,12.24,117,31.73,170.53,61.37,11.07,6.14,22.42,11.79,33.47,18,37.07,20.73,76.76,33.59,118.51,40.82,31.52,5.45,62.94,11.53,94.32,17.7a943.26,943.26,0,0,1,194.19,61c61.12,26.58,122.14,53.4,183.33,79.81,57.55,24.83,115.87,47.66,175.82,66.16,67.75,20.9,137.14,33.69,207.29,42.87,70.73,9.25,141.86,14.5,212.88,20.83,134.14,11.95,268,26.3,400.31,52,79.26,15.43,157.47,34.81,233.18,63.37,34.35,13,67.9,27.67,100.09,45.35,8.75,4.81,17.14,10.26,25.7,15.42v248a155.75,155.75,0,0,1-53.36-6.09c-18.53-5.41-36.84-11.91-55.68-15.93-37.16-7.91-73.27-19.72-110.34-28.1-40.2-9.08-80.37-19-119.47-32.47a159.26,159.26,0,0,0-15.43-4.11c-36.92-8.7-73.11-20.45-110.67-26.46-.65-.11-1.28-.36-1.93-.53-42.51-11.22-85-22.54-127.55-33.64-41.26-10.75-82.82-20.16-124.87-27.43-47.91-8.29-95.66-17.44-143.6-25.54-69.64-11.76-139.38-22.86-209.07-34.35-17.74-2.92-35.46-6-53.11-9.47-28.74-5.64-57.41-11.68-86.12-17.5-35.23-7.14-71.27-10-105.94-20.12-4.45-1.3-9.17-1.63-13.76-2.5q-66.75-12.69-133.51-25.43c-16.34-3.14-32.52-7.42-49-9.6a385.6,385.6,0,0,1-68.23-14.93c-7-2.25-14.08-4.07-21.22-5.67-40.3-9-80.77-17.27-120.43-29.09-23.59-7-47.56-12.8-71.27-19.55-28.19-8-57.39-13.6-86.87-10.22-24.62,2.83-49.17,3.1-73.81,3-18,0-35.91.4-53.44,5.69-6.28,1.9-13.18,1.66-19.75,2.68-4.29.67-10.6-1.21-11.58,4.95-.67,4.28,4.47,6.25,7.84,8.13a206.49,206.49,0,0,0,21.35,10.82c16.63,6.85,33.43,13.3,50.24,19.69,13.69,5.21,27.21,11.17,41.31,14.92,29.6,7.88,59.53,14.55,89.33,21.67,7.79,1.86,15.7,3.35,21.84,9.13-23-4-45.94-8.14-69-11.85-34.94-5.62-69-15.14-102.94-24.63-28.22-7.88-56.35-16.25-84.08-25.69-37.81-12.88-75.94-24.84-112.17-42.18-22.8-10.91-46.58-19.89-72.06-23.15a126,126,0,0,1-19.47-4.52c-30-8.86-60-17.9-90-26.9-8.93-2.69-18.09-4.84-26.7-8.32-33.37-13.47-66.77-26.9-99.76-41.26-36.66-16-73.26-32.14-109.15-49.72-26.29-12.88-53.18-24.85-77.71-41.13a62.47,62.47,0,0,0-27.87-10.2q-26.81-3.09-53.57-6.62c-46.22-6-92.16-15-139.11-13.62a13.28,13.28,0,0,1-2-.11c-40.37-4.63-81.12-5.68-121.17-13.19-14.52-2.72-29.18-2.67-43.85-1.66C7139.67,6313.38,7132,6316.67,7128.14,6325.83Z" transform="translate(-4191.5 -5507.5)"/><path class="cls-2" d="M10207.5,7547.5c-15.87-2-31.72-4.07-47.61-5.85-9.25-1-18.56-1.64-27.86-2.29-27.89-2-55.83-3.45-83.67-6-14-1.25-27.86-2.43-41.87-2.41-31.31.06-62.63-.1-93.95.21-12,.13-23.92,1.28-35.88,2-4,.25-8,1-12,1-82.59.56-165.06,7-247.71,4.69a272,272,0,0,1-65-10.07,148.17,148.17,0,0,1-41.87-18.54c-21.78-14.22-43-29-61.25-47.9-24.53-25.39-49.73-50.07-73-76.74-19.68-22.57-40.55-44.26-63.95-63.13-48.25-38.89-104.1-61.3-164-74.94-37.07-8.45-74.71-13.64-112-20.57-66.94-12.42-132.73-29.07-196.39-53.63-46.83-18.07-90.39-42.36-133.16-68.36-51.28-31.16-100.52-65.4-150.35-98.73-56.78-38-116.59-69.55-180.57-93.58-80.51-30.24-161.68-58.46-244.62-81.24-34.05-9.34-68.22-18.13-101.88-28.88-45.75-14.59-91-30.37-134.89-49.94-46.5-20.74-89.51-46.77-128.71-79.62-54.12-45.36-107.32-91.86-163.59-134.62-3.68-2.79-6.77-6.36-10.14-9.57,13.71-5.14,27.17-3.94,41.13,0,38.47,10.8,76.94,21.78,115.83,30.86,28.49,6.65,56.74,14.6,85.94,18.32a187.7,187.7,0,0,1,38.85,9.17c29.9,10.65,60.95,13.68,92.16,16.54,28.51,2.6,57.16,4.4,84.69,13.38,4.41,1.44,9.08,2.11,13.63,3.15,27.9,6.38,55.26,14.88,83.51,20,17.67,3.18,34.92,8.66,52.49,12.48a78.43,78.43,0,0,0,21.79,1.87c14.86-1,29.13,1.43,43.56,4.39,30.67,6.31,61.45,12.1,92.23,17.83a136.88,136.88,0,0,0,21.84,2.28,243.7,243.7,0,0,1,39.72,4.16c16.44,3.11,33,3.69,49.72,4.23,35.24,1.12,70.6,1.4,105.39,8.47,4.57.92,9.22,1.43,13.84,2.05,7.39,1,14.63.52,21.58-2.45,11.82,2,23.66,3.89,35.44,6.08,119.14,22.17,238.13,45.13,356.71,70.15,129.67,27.35,258.83,56.87,386.8,91.46,110,29.73,218.79,63.17,325,104.66,69.5,27.15,137.45,57.93,205.25,89,86.06,39.41,173.51,75.19,263.78,103.83,8.22,2.61,16.66,4.52,25,6.76Z" transform="translate(-4191.5 -5507.5)"/><path class="cls-1" d="M10207.5,7167.5c-8.34-2.24-16.78-4.15-25-6.76-90.27-28.64-177.72-64.42-263.78-103.83-67.8-31.06-135.75-61.84-205.25-89-106.2-41.49-215-74.93-325-104.66-128-34.59-257.13-64.11-386.8-91.46-118.58-25-237.57-48-356.71-70.15-11.78-2.19-23.62-4.06-35.44-6.08-7.22-3.8-15.2-4.73-23-6.3-20.9-4.17-41.75-8.54-62.67-12.65-8.49-1.67-17.06-2.95-25.62-4.23-19.11-2.87-38.23-5.57-57.33-8.43-13.83-2.08-27.64-4.31-41.46-6.47-6.14-5.78-14-7.27-21.84-9.13-29.8-7.12-59.73-13.79-89.33-21.67-14.1-3.75-27.62-9.71-41.31-14.92-16.81-6.39-33.61-12.84-50.24-19.69a206.49,206.49,0,0,1-21.35-10.82c-3.37-1.88-8.51-3.85-7.84-8.13,1-6.16,7.29-4.28,11.58-4.95,6.57-1,13.47-.78,19.75-2.68,17.53-5.29,35.4-5.73,53.44-5.69,24.64.06,49.19-.21,73.81-3,29.48-3.38,58.68,2.19,86.87,10.22,23.71,6.75,47.68,12.51,71.27,19.55,39.66,11.82,80.13,20.05,120.43,29.09,7.14,1.6,14.26,3.42,21.22,5.67a385.6,385.6,0,0,0,68.23,14.93c16.47,2.18,32.65,6.46,49,9.6q66.74,12.8,133.51,25.43c4.59.87,9.31,1.2,13.76,2.5,34.67,10.16,70.71,13,105.94,20.12,28.71,5.82,57.38,11.86,86.12,17.5,17.65,3.47,35.37,6.55,53.11,9.47,69.69,11.49,139.43,22.59,209.07,34.35,47.94,8.1,95.69,17.25,143.6,25.54,42,7.27,83.61,16.68,124.87,27.43,42.55,11.1,85,22.42,127.55,33.64.65.17,1.28.42,1.93.53,37.56,6,73.75,17.76,110.67,26.46a159.26,159.26,0,0,1,15.43,4.11c39.1,13.49,79.27,23.39,119.47,32.47,37.07,8.38,73.18,20.19,110.34,28.1,18.84,4,37.15,10.52,55.68,15.93a155.75,155.75,0,0,0,53.36,6.09Z" transform="translate(-4191.5 -5507.5)"/><path class="cls-6" d="M8399.41,6657.49c13.82,2.16,27.63,4.39,41.46,6.47,19.1,2.86,38.22,5.56,57.33,8.43,8.56,1.28,17.13,2.56,25.62,4.23,20.92,4.11,41.77,8.48,62.67,12.65,7.84,1.57,15.82,2.5,23,6.3-7,3-14.19,3.44-21.58,2.45-4.62-.62-9.27-1.13-13.84-2.05-34.79-7.07-70.15-7.35-105.39-8.47-16.69-.54-33.28-1.12-49.72-4.23a243.7,243.7,0,0,0-39.72-4.16,136.88,136.88,0,0,1-21.84-2.28c-30.78-5.73-61.56-11.52-92.23-17.83-14.43-3-28.7-5.41-43.56-4.39a78.43,78.43,0,0,1-21.79-1.87c-17.57-3.82-34.82-9.3-52.49-12.48-28.25-5.08-55.61-13.58-83.51-20-4.55-1-9.22-1.71-13.63-3.15-27.53-9-56.18-10.78-84.69-13.38-31.21-2.86-62.26-5.89-92.16-16.54a187.7,187.7,0,0,0-38.85-9.17c-29.2-3.72-57.45-11.67-85.94-18.32-38.89-9.08-77.36-20.06-115.83-30.86-14-3.92-27.42-5.12-41.13,0q-20.45-14.3-40.91-28.59A758.06,758.06,0,0,0,7398,6418.48c-75.49-30.15-152.69-55.18-230.23-79.3-13.3-4.13-27.11-6.82-39.6-13.36,3.89-9.15,11.54-12.44,20.75-13.08,14.67-1,29.33-1.06,43.85,1.66,40.05,7.51,80.8,8.56,121.17,13.19a13.28,13.28,0,0,0,2,.11c46.95-1.37,92.89,7.62,139.11,13.62q26.78,3.48,53.57,6.62a62.47,62.47,0,0,1,27.87,10.2c24.53,16.28,51.42,28.25,77.71,41.13,35.89,17.58,72.49,33.76,109.15,49.72,33,14.36,66.39,27.79,99.76,41.26,8.61,3.48,17.77,5.63,26.7,8.32,30,9,59.95,18,90,26.9a126,126,0,0,0,19.47,4.52c25.48,3.26,49.26,12.24,72.06,23.15,36.23,17.34,74.36,29.3,112.17,42.18,27.73,9.44,55.86,17.81,84.08,25.69,34,9.49,68,19,102.94,24.63C8353.47,6649.35,8376.42,6653.53,8399.41,6657.49Z" transform="translate(-4191.5 -5507.5)"/></svg>