<svg id="图层_1" data-name="图层 1" xmlns="http://www.w3.org/2000/svg" viewBox="0 0 6016 3384"><defs><style>.cls-1{fill:#ea4a51;}.cls-2{fill:#90267a;}.cls-3{fill:#d20768;}.cls-4{fill:#2382b6;}.cls-5{fill:#e3004a;}.cls-6{fill:#4a3c75;}.cls-7{fill:#4ba5d2;}.cls-8{fill:#f1a649;}.cls-9{fill:#d2e2ef;}.cls-10{fill:#b2cbec;}.cls-11{fill:#ebcec6;}.cls-12{fill:#f2a57b;}</style></defs><path class="cls-1" d="M4191.5,6007.5v-500h1484c3.87,5.22,10.05,6.15,15.55,8.23,21.79,8.2,43.66,16.18,65.44,24.4,174.15,65.72,341.35,145.6,499.38,244.32,100.53,62.79,198.48,129.21,291.67,202.53a21.12,21.12,0,0,0,12.05,8.8q40.13,36,80.27,72c15.41,13.75,30.71,27.63,46.52,40.91,100.68,84.49,212.68,148.45,338.88,186.71,65,19.71,129.84,39.93,194.75,59.92q25.74,7.94,51.46,15.93c4.65,4.16,10.76,5.1,16.32,7.14,30.55,11.25,61.26,22,91.76,33.43,61.93,23.11,120.31,53.11,174.45,91.17,12.5,8.79,24.9,17.74,37.34,26.62,4.42,4,8.66,8.18,13.28,11.92,24.28,19.63,48.7,39.1,73,58.71,12.38,10,23.69,21.38,37.63,29.39,13.48,15.84,30.6,27.6,46.17,41.08,32.91,28.49,68.7,52.65,108.08,71.4,68.8,32.75,140.21,58.4,213.78,78,94.09,25,186.86,54.05,277.94,88.55,62,23.47,121.2,52.06,176.54,88.5q74.28,48.93,148,98.67c58.95,39.8,122.44,70.22,189.67,93,70.89,24.05,143.89,39.28,217.65,51.18,35.56,5.74,70.83,12.69,105,24.3,53.78,18.27,102.32,45.08,141.46,87.18,24.94,26.83,50.85,52.81,74.94,80.39a438.36,438.36,0,0,0,80.43,71.48c18.82,13.11,38.95,23,61.12,28.78,11,2.88,22.05,5.43,32.61,9.4,9,3.39,17.52,5.15,27.17,3.13a41.65,41.65,0,0,1,17.81.42c31.32,7.64,63.57,5.56,95.27,9.4,27.07,3.28,54.18,6.23,81.16,10.32,14.47,2.2,29,4.37,43.48,6.21,29.72,3.76,59.51,7,88.58,14.75,7.71,2.05,15.57,4.41,23.44,4.78,12.84.62,25,3.58,37.12,7.28,7,2.14,14.29,3.27,21.38,5.1,31.6,8.17,63.2,16.31,94.73,24.75a144.33,144.33,0,0,1,20.61,7.59c16.45,7.25,32.79,14.76,49.08,22.36a62.78,62.78,0,0,0,19,5.91v412c-11.25.11-20.6-5.43-29.7-10.84-9.91-5.88-20.41-9.59-31.49-12.23a168.61,168.61,0,0,1-19.21-5.49c-20.65-7.62-41.18-15.55-63.58-16.43-2.59-.1-5.16-1.28-7.72-2-26.94-7.56-54-14.61-81.69-18.89-26.94-4.17-53.7-8.94-81.12-10.71-22.58-1.45-45.13-2.81-67.74-3.38-5.29-.14-10.53-1.71-15.83-2.08-19.9-1.39-40-4.61-59.69-3.28-25.18,1.71-50.55,1-75.63,5.48-19.61,3.48-39.6,4.74-59.4,7.17-25.8,3.17-51.14,8.72-76.53,14.16-19.48,4.18-39.6,5.35-58.27,13.28-3.57,1.52-7.86,1.27-11.79,2-15.73,2.87-31.94,4.28-47,9.16-13.41,4.33-27,6.78-40.61,9.92-7.13,1.66-14.26,3.38-21.32,5.28-12.22,3.31-24.21,8.14-36.63,9.87-21.83,3.05-42.75,9.76-64.3,13.84-10.53,2-20.95,3.59-31.68,3.53-24.66-.14-49.33-.09-74,0-13.35,0-26.58-.35-39.75-3.2a229.31,229.31,0,0,0-31.61-4.59c-13.46-1-26.17-4.29-38.88-8.57-17-5.73-34.29-10.79-51.56-15.77-12.79-3.68-25.94-6.19-38.6-10.25-32.31-10.37-64.1-22.29-97.72-28.35-20.29-3.66-40.15-9.66-60.38-13.77q-45-9.17-90.3-17.09c-47.85-8.47-95.58-17.6-143.73-24.29-9.88-1.38-19.85-2.18-29.73-3.61-34.25-4.94-68.44-10.44-103.18-10.71a52.73,52.73,0,0,1-11.91-1.18,117,117,0,0,0-39.77-2.35c-21.26,2.25-42.23,1.64-63.52.13-27.17-1.92-54.43-1-81.74-3.6a560.64,560.64,0,0,1-78.72-12.74q-50.52-12.1-101.29-23.18-51.77-11.37-102.82-25.53c-36-9.9-71.77-20.61-108.08-29.06-36.5-8.49-71.35-21.78-106.5-34.05-46.47-16.23-90.65-38.62-137.93-52.87a92.4,92.4,0,0,1-12.88-5.45c-31.29-14.9-62.61-29.73-93.79-44.84-49.78-24.13-99.29-48.81-148-75.13-49.23-26.63-98.49-53.22-147.43-80.38-40.79-22.64-81.41-45.53-123-66.69-101-51.35-203.86-98.91-306.61-146.65-34.44-16-69-31.76-104.25-46q-89-35.94-180.07-66.37-57.81-19.36-116.07-37.44c-68.75-21.3-137.7-41.93-206.46-63.2-34.34-10.62-69-20.46-101.39-36.55-2.93-1.46-6.29-2.1-9.5-2.95-43.8-11.56-87.64-23-131.39-34.67s-87.47-23.57-131.1-35.75c-39.79-11.11-79.43-22.72-119.14-34.14-14.07-4.05-28.48-7.25-42.11-12.47-24.37-9.35-50.21-13.32-74.76-21.85a15.26,15.26,0,0,0-3.93-.67c-13.51-.95-25.94-5.86-38.49-10.35-4.39-1.57-8.63-3.66-13.12-4.81-29-7.46-58.08-14.7-87.11-22.07-7.1-1.8-14.21-3.64-21.2-5.82-29.29-9.09-59.51-14.38-89.43-20.48-17.1-3.48-34.13-7.34-49.7-14.25-25.5-11.32-51.82-21.16-75.69-36a77.62,77.62,0,0,0-16.16-7.86c-13.5-4.5-25-12.39-36.71-20.05-20.08-13.12-40.16-26.25-62.61-35.25-5.49-2.2-10.6-5.61-15.48-9.05-39.85-28-76.36-60-111.44-93.76-17.74-17.06-35.91-33.67-51.55-52.78a54.74,54.74,0,0,0-4.3-4.17q-37.74-37.18-75.43-74.42a88,88,0,0,1-10.43-12.07c-6.54-9.4-14.57-17.39-23.13-24.8-9.69-8.38-18-17.79-24.13-29a57.62,57.62,0,0,0-12.44-15.49c-18.87-16.78-33.35-37.86-52.86-54a13.1,13.1,0,0,1-2.46-3.14c-5.4-8.54-12.44-15.67-19.79-22.44-18.1-16.69-36-33.69-54.82-49.49-7.76-6.5-13.56-14.57-21-21.28-15.72-14.27-28.32-31.81-46-44.08-2.09-1.45-3.38-4.09-4.9-6.27-7-10.07-16.49-16.94-27.07-23.11a404.14,404.14,0,0,1-59.9-42.89c-22.21-19.09-45.9-36.35-67.58-56.14-14.72-13.42-31.66-24.38-46.69-37.49-30.21-26.33-63.42-48.61-95.62-72.26C4215.51,6015.36,4204.6,6008.89,4191.5,6007.5Z" transform="translate(-4191.5 -5507.5)"/><path class="cls-2" d="M10207.5,8727.5v164h-1068c-3.23-7.45-9.82-8.57-16.69-8.25-20.84,1-41.12-2.93-61.46-6.54-4.57-.81-9.24-1.14-13.89-1.52-19.89-1.59-40-1.93-59.62-5-19.28-3-38.48-2.85-57.77-3.07-15.33-.18-30.8.89-45.93-.93s-30.58-1.88-45.73-3.47c-24.55-2.56-49.09-3.71-73.72-4.18-3.29-.06-6.55-1.14-9.86-1.53-5.94-.71-11.91-1.78-17.86-1.76-24,.08-47.62-5.8-71.7-4.66-3.25.15-6.55-1.12-9.86-1.46-7.27-.75-14.64-2.32-21.84-1.8-22.6,1.62-45-6.12-67.59-1.4-1.84.38-4-.29-5.91-.78-28-7.26-56.92-5.34-85.35-8.3-41.7-4.35-83.91,1.23-125.55-5.66-30.61.85-61.29-2-91.86,2-4.5.59-9.24-.52-13.87-.91-31.8-2.68-63.56-6.3-95.42-7.79-27.07-1.26-54.38,2.15-81.08-5.08a10,10,0,0,0-2-.12c-27.21-1.4-54.42-2.66-81.62-4.3a82.64,82.64,0,0,1-19.6-3.32c-11-3.44-22.09-4.54-33.5-4.53-16,0-32.08.63-47.93-1-24.48-2.49-48.69-7.45-73.45-7.26-4.61,0-9.23-1.19-13.84-1.84-23.07-3.22-46.06-7.85-69.24-9.3a602.32,602.32,0,0,1-73.2-9.52c-20.85-3.89-42.57-2.51-62.73-10.52a12.07,12.07,0,0,0-4-.33c-26.09-.78-51.48-5.78-76.87-11.59-22-5-44.45-8.22-66.74-12-3.9-.67-8-.47-12-.55a136.94,136.94,0,0,1-41.13-7.48c-13.4-4.53-27.09-6.45-41.13-6.9a64.12,64.12,0,0,1-13.78-1.57c-19.32-4.94-39.51-6.33-58.08-14.4-2.94-1.28-6.52-1.35-9.83-1.51-8.08-.39-15.68-2.76-23.41-4.87a475,475,0,0,0-54.57-12c-29.55-4.46-59.52-7.76-87.58-19.32a30.78,30.78,0,0,0-9.61-2.63c-14.72-.84-28.65-5.68-42.95-8.15-25-4.33-49.36-11.19-74.05-16.64-26-5.74-53.05-4.79-78.8-12.16a18.86,18.86,0,0,0-6-.24c-15.57.79-30.44-2.72-45.18-7.19-5.73-1.74-11.55-3.17-17.36-4.64-35-8.85-71.58-6.72-106.5-15.92a15.05,15.05,0,0,0-4-.22c-9.41.17-18.52-1.76-27.71-3.47-11.12-2.07-22.43-3.14-33.52-5.31-26.11-5.12-53-5.44-78.61-13.75-3.11-1-6.56-1.14-9.87-1.35a391.39,391.39,0,0,1-65.13-9.54c-6.44-1.51-13.15-1.84-19.75-2.67s-13.25-1.3-19.79-2.44c-14.38-2.5-28.49-6.74-43.47-3.41-4.27.95-9.17-1-13.8-1.51-25.11-2.88-50.18-6.22-75.34-8.46-20.53-1.82-41.11-3.54-61.61-5.36-17.28-1.53-34.47-2.64-51.77-2.88a86.34,86.34,0,0,1-13.95-.83c-40.74-7.19-82.14-7.15-123.13-11.39-18.55-1.92-37-4.1-55.69-4.42a27.39,27.39,0,0,1-7.84-1.48c-18.07-5.84-36.67-6.18-55.4-5.86-13.32.23-26.66.17-40-.07-6-.1-12.34.22-17.8-1.71-16.73-5.93-33.9-6.53-51.28-6.34a41.83,41.83,0,0,1-9.94-.9c-13.11-3.14-26.44-3.44-39.76-2.87-24.15,1-47.81-2.59-71.49-6.46-10.52-1.72-20.91-3.4-30.58-8.56-8.36-4.47-17.82-5.19-27.27-5.06a202.32,202.32,0,0,1-37.78-2.84,328,328,0,0,0-43.61-4.88,170.12,170.12,0,0,1-41.38-6.31c-16.09-4.69-32.57-6.8-48.91-9.91-5.89-1.12-11.79-2.17-17.65-3.38-23.49-4.83-46.87-10.21-70.46-14.42-19.06-3.41-38-6.8-55.93-14.53-6.06-2.61-12.74-3.91-19.25-5.25-5.85-1.21-11.85-2.35-17.78-2.3-12.23.09-24-1.43-34.67-7.69s-24.1-2.11-34.58-8.75c-9.39-6-19.71-7-30.43-8.25-16.55-1.91-33-5.76-47.47-14.32a83.21,83.21,0,0,0-29.83-10.63c-15.79-2.53-31.35-5.76-46.54-11.16-20.06-7.14-40.48-13.3-60.85-19.56-9.53-2.93-19.17-6-29-7.44a151.5,151.5,0,0,1-52.68-17.95c-12.7-7.23-24.36-16.38-40.09-15.81-1.84.06-3.91-1-5.55-2.09-13.2-8.5-28.74-10.35-43.15-15.39-4.39-1.54-10-1.47-13.2-4.25-14.6-12.57-33.43-15.76-50-23.78a106.18,106.18,0,0,0-14.71-6.17,254.51,254.51,0,0,1-64.86-30.36,26.22,26.22,0,0,0-9.07-4,92,92,0,0,1-45.68-23.26c-5.59-5.13-12-8.35-20-7.16-4.81.72-9.57.26-13.15-3.18-10.89-10.43-23.8-16.91-38.25-20.7a10.76,10.76,0,0,1-5.18-2.91c-12.65-14.55-34.29-14.63-46.94-29.23-1.13-1.31-3.63-1.5-5.55-2-8.34-2.34-16.58-5.23-25.07-6.76a92.33,92.33,0,0,1-41.31-18.94c-11.23-8.83-23.69-14.72-38.07-16.22-5.95-.62-11.84-1.87-17.79-2.47-9.44-1-18.45-3.16-26.2-8.82-5.53-4-11.47-6.9-18.27-7.46-21-1.7-38.73-13.66-58.84-18.16-5.37-1.19-10.05-4.86-9.92-11.09.2-9.87-5.29-15.15-13.82-16.86-11.17-2.24-17.1-9.36-21.41-18.95-2.48-5.51-5.83-10.46-10.88-14.07-13.58-9.72-22.57-22.3-25.25-39.17a26.37,26.37,0,0,0-9.84-17c-8.91-6.91-17.62-14.44-29.52-15.89v-1088c26.93,6.79,50.62,19.34,72.14,37.15,15.9,13.15,32.19,25.74,47.41,39.75,17.12,15.76,35.81,29.85,52.56,46,30.24,29.12,60.1,58.7,89.1,89.06,29.49,30.87,63.13,57.28,92.61,88.14,14.71,15.4,29.35,31,48.18,41.76a37.4,37.4,0,0,1,6.22,5c20.75,18.74,42.39,36.51,61.47,57.06a94.28,94.28,0,0,0,15.18,12.92c25.28,17.65,44.71,41.63,67.35,62.12,3.85,3.49,6.67,8.32,9.29,12.9a97.12,97.12,0,0,0,13.29,17.43c5.39,5.86,10.44,12.07,15.26,18.42a111.25,111.25,0,0,0,13.27,14.86c24.46,22.43,51.94,41.59,73.08,67.65,2.44,3,6.23,4.95,9.42,7.35,10.12,7.61,19.77,15.52,27.74,25.66,7.36,9.38,16,18,27,23.39,6.75,3.33,11.83,8.43,16.06,14.63,5.29,7.76,11.35,15.51,19.48,19.83,19.5,10.33,37.26,23,54.71,36.3,5.78,4.41,12.32,7.89,17.45,13.21,7.16,7.43,15.58,12.37,26,13.8,2.6.36,5.57.82,7.58,2.3,11.81,8.74,26.54,12.38,37.76,22.26,8.72,7.68,19,12.08,31.11,11.38,5.31-.3,11.09-.42,15.55,2.69,10.89,7.61,23.7,12.6,32.81,22.58,11.13,12.2,25.17,19.45,40.05,25.63,8,3.32,16.32,6.2,23.64,10.69,13.7,8.41,28.22,15,43,21.09,23.37,9.67,46.63,19.76,70.5,28,23.26,8.06,46.85,14.92,67.64,28.69,2.74,1.81,6,2.91,9.08,4.12,9.31,3.64,18.58,7.39,28,10.68,8.9,3.1,17.57,6.3,23.53,14.24a16.83,16.83,0,0,0,9.81,6.52c19.61,4.42,35,15.59,48.59,29.85,6,6.35,12.86,11.43,21.44,14.13,21.07,6.61,40.4,17.12,59.59,27.75a168.05,168.05,0,0,0,21.5,10.48c28,10.64,56.57,19.7,83.21,33.69,5.16,2.71,11.39,4,17.27,4.59,9.52,1,18,4.36,26.45,8.53,7.75,3.84,15.47,8,23.67,10.6a346.91,346.91,0,0,1,41,15.79c14.07,6.47,29.21,11.33,44.17,11.79,15.73.49,30.1,2.4,43.55,10.45,21.17,2.4,41.42,8.51,61.71,14.76,8.18,2.52,17.12,2.46,25.57,4.25,14.41,3.05,28.88,4.9,43.64,4.29,10-.41,20.07.22,29.66,3.4,19.81,6.56,40,10,60.93,8.77a48.73,48.73,0,0,1,7.95.71c28.38,3.1,55.67,12.71,84.32,14.19,10.81,5,22.28,1.94,33.36,3s21.49,6.83,33.17,6c6-.42,11.78,1.51,17.58,3.23,24.31,7.19,48.86,12.82,74.56,9.88a22.69,22.69,0,0,1,9.82,1.07c18.41,6.57,37.84,7,56.83,10.08,21,3.41,41.89,7,62.27,13.76,15.68,5.17,32.08,9.92,48.4,10.9a284.68,284.68,0,0,1,47.27,6.5c18.8,4.36,38.24,5.42,56.73,11.43,3.68,1.2,7.95.48,11.91,1,25.69,3.41,51.72,4.8,76.6,13.06,3.12,1,6.67,2.33,9.71,1.77,14.69-2.71,27.6,2.92,40.57,8.07,7.54,3,15.33,3.94,23.22,5.29,22.91,3.92,45.73,8.2,68.91,10.3,4.59.41,9.08,2.09,13.6,3.22,16.75,4.22,32.91,10.68,50.27,12.66a87.78,87.78,0,0,1,30.47,9.2c3.49,1.8,7.56,3.5,11.36,3.48,17-.09,32.68,6,49,9.32,16.83,3.38,34.5,3.63,49.67,13.47,2.62,1.7,6.45,1.46,9.64,2.38,34.61,9.89,70.16,15.74,104.93,25.14,28.16,7.62,56.9,12.94,85.12,20.87,23.54,6.6,48.36,8.92,71.83,16.77,4.39,1.46,9.16,1.73,13.71,2.74,20.75,4.63,41.54,9.12,62.22,14,29.15,6.95,58.16,14.46,87.34,21.28,17.52,4.08,35.11,7.72,52.4,12.84a465.77,465.77,0,0,0,64.37,14.22c7.24,1.07,14.6,2.27,21.45,4.7,20.76,7.38,42.57,10.32,63.83,15.49,20,4.84,40.84,6,59.18,16.59a19.36,19.36,0,0,0,5.72,1.78,95.9,95.9,0,0,1,26.09,9.87,60,60,0,0,0,26.71,7.44,43.59,43.59,0,0,1,11.8,1.92c37,12.1,76.3,11.62,113.84,20.82,4.45,1.09,9.27.7,13.92,1s9.7-.45,13.88,1.12c15.21,5.72,31.1,6.72,47,8.26,11.25,1.09,22.43,3,33.67,4.25,25.73,3,51.83,3.09,77,10.06a8.7,8.7,0,0,0,2,.12c19.95.75,39.58,5.57,59.69,4.6,3.9-.19,7.94,1,11.8,1.92,12.31,3.12,24.51,6.21,37.4,2.92,3-.78,6.58.44,9.88.81,18.53,2.1,36.9,5.07,55.27,8.37,14.94,2.68,30.1,5.51,45.6,2.23,5-1.06,10.69-.24,15.84.8,12.39,2.47,25.16,3.12,37.14,7.67,6.44,2.45,13.06,2,19.69.47,10.7-2.52,21.18-1.44,31.49,2.12a68.36,68.36,0,0,0,23.51,4.21c9.45-.16,18.46,1.92,27.47,4.59,5.7,1.68,11.72,2.32,17.61,3.33,22.85,3.93,45.44,9.57,68.81,10,2.61.05,5.18,1.25,7.79,1.76,8.49,1.67,17,3.55,25.51,4.83,17.76,2.65,35.77,4,53.31,7.67,24.75,5.17,49.73,9.41,74.56,13.86,23.45,4.2,47.38,6.9,71.11,10.19a416,416,0,0,1,41.23,7.49c9.78,2.37,19.41,4.44,29.51,4.46A63.65,63.65,0,0,1,8973,8541c23.26,6.07,47,9.43,70.67,13.31,21,3.44,41.57,9.64,63.13,9.63,3.27,0,6.56,1.05,9.81,1.78,17.54,3.92,35.05,7.94,52.6,11.79,3.89.86,7.9,1.13,11.85,1.71,9.88,1.43,19.87,2.31,29.59,4.46,15.58,3.44,31.53,5.6,46.86,9.26,22.68,5.42,45.39,9.64,68.36,13.36,20.35,3.3,40.28,9.14,60.43,13.66,28.59,6.41,57.17,12.8,85.82,18.89,48.19,10.25,97.58,13.06,145.74,23.55,4.5,1,9.28.6,13.93,1,6,.48,12,.72,17.88,1.69,48,7.9,96,15.64,143.84,24.16,11.36,2,20.66.86,29.85-6.41,10.82-8.57,23.64-12,37.52-11,7.29.54,14.66.75,21.85,1.95,37.45,6.24,74.9,12.5,112.26,19.31,17,3.1,34.25,4.32,51.27,8,20.11,4.34,40.21,9.15,60.81,11.53a435.47,435.47,0,0,1,57,10C10178.54,8726.26,10192.73,8728.47,10207.5,8727.5Z" transform="translate(-4191.5 -5507.5)"/><path class="cls-3" d="M10207.5,8727.5c-14.77,1-29-1.24-43.4-4.89a435.47,435.47,0,0,0-57-10c-20.6-2.38-40.7-7.19-60.81-11.53-17-3.67-34.25-4.89-51.27-8-37.36-6.81-74.81-13.07-112.26-19.31-7.19-1.2-14.56-1.41-21.85-1.95-13.88-1-26.7,2.42-37.52,11-9.19,7.27-18.49,8.43-29.85,6.41-47.86-8.52-95.87-16.26-143.84-24.16-5.89-1-11.91-1.21-17.88-1.69-4.65-.37-9.43,0-13.93-1-48.16-10.49-97.55-13.3-145.74-23.55-28.65-6.09-57.23-12.48-85.82-18.89-20.15-4.52-40.08-10.36-60.43-13.66-23-3.72-45.68-7.94-68.36-13.36-15.33-3.66-31.28-5.82-46.86-9.26-9.72-2.15-19.71-3-29.59-4.46-4-.58-8-.85-11.85-1.71-17.55-3.85-35.06-7.87-52.6-11.79-3.25-.73-6.54-1.78-9.81-1.78-21.56,0-42.13-6.19-63.13-9.63-23.67-3.88-47.41-7.24-70.67-13.31a63.65,63.65,0,0,0-15.86-1.55c-10.1,0-19.73-2.09-29.51-4.46a416,416,0,0,0-41.23-7.49c-23.73-3.29-47.66-6-71.11-10.19-24.83-4.45-49.81-8.69-74.56-13.86-17.54-3.67-35.55-5-53.31-7.67-8.55-1.28-17-3.16-25.51-4.83-2.61-.51-5.18-1.71-7.79-1.76-23.37-.4-46-6-68.81-10-5.89-1-11.91-1.65-17.61-3.33-9-2.67-18-4.75-27.47-4.59a68.36,68.36,0,0,1-23.51-4.21c-10.31-3.56-20.79-4.64-31.49-2.12-6.63,1.56-13.25,2-19.69-.47-12-4.55-24.75-5.2-37.14-7.67-5.15-1-10.82-1.86-15.84-.8-15.5,3.28-30.66.45-45.6-2.23-18.37-3.3-36.74-6.27-55.27-8.37-3.3-.37-6.85-1.59-9.88-.81-12.89,3.29-25.09.2-37.4-2.92-3.86-1-7.9-2.11-11.8-1.92-20.11,1-39.74-3.85-59.69-4.6a8.7,8.7,0,0,1-2-.12c-25.21-7-51.31-7.1-77-10.06-11.24-1.29-22.42-3.16-33.67-4.25-15.89-1.54-31.78-2.54-47-8.26-4.18-1.57-9.23-.82-13.88-1.12s-9.47.08-13.92-1c-37.54-9.2-76.83-8.72-113.84-20.82a43.59,43.59,0,0,0-11.8-1.92,60,60,0,0,1-26.71-7.44,95.9,95.9,0,0,0-26.09-9.87,19.36,19.36,0,0,1-5.72-1.78c-18.34-10.63-39.22-11.75-59.18-16.59-21.26-5.17-43.07-8.11-63.83-15.49-6.85-2.43-14.21-3.63-21.45-4.7a465.77,465.77,0,0,1-64.37-14.22c-17.29-5.12-34.88-8.76-52.4-12.84-29.18-6.82-58.19-14.33-87.34-21.28-20.68-4.92-41.47-9.41-62.22-14-4.55-1-9.32-1.28-13.71-2.74-23.47-7.85-48.29-10.17-71.83-16.77-28.22-7.93-57-13.25-85.12-20.87-34.77-9.4-70.32-15.25-104.93-25.14-3.19-.92-7-.68-9.64-2.38-15.17-9.84-32.84-10.09-49.67-13.47-16.27-3.28-32-9.41-49-9.32-3.8,0-7.87-1.68-11.36-3.48a87.78,87.78,0,0,0-30.47-9.2c-17.36-2-33.52-8.44-50.27-12.66-4.52-1.13-9-2.81-13.6-3.22-23.18-2.1-46-6.38-68.91-10.3-7.89-1.35-15.68-2.3-23.22-5.29-13-5.15-25.88-10.78-40.57-8.07-3,.56-6.59-.74-9.71-1.77-24.88-8.26-50.91-9.65-76.6-13.06-4-.52-8.23.2-11.91-1-18.49-6-37.93-7.07-56.73-11.43a284.68,284.68,0,0,0-47.27-6.5c-16.32-1-32.72-5.73-48.4-10.9-20.38-6.72-41.31-10.35-62.27-13.76-19-3.09-38.42-3.51-56.83-10.08a22.69,22.69,0,0,0-9.82-1.07c-25.7,2.94-50.25-2.69-74.56-9.88-5.8-1.72-11.56-3.65-17.58-3.23-11.68.82-22.11-4.91-33.17-6s-22.55,1.94-33.36-3c-28.65-1.48-55.94-11.09-84.32-14.19a48.73,48.73,0,0,0-7.95-.71c-20.92,1.19-41.12-2.21-60.93-8.77-9.59-3.18-19.62-3.81-29.66-3.4-14.76.61-29.23-1.24-43.64-4.29-8.45-1.79-17.39-1.73-25.57-4.25-20.29-6.25-40.54-12.36-61.71-14.76-13.45-8-27.82-10-43.55-10.45-15-.46-30.1-5.32-44.17-11.79a346.91,346.91,0,0,0-41-15.79c-8.2-2.57-15.92-6.76-23.67-10.6-8.42-4.17-16.93-7.52-26.45-8.53-5.88-.63-12.11-1.88-17.27-4.59-26.64-14-55.24-23-83.21-33.69a168.05,168.05,0,0,1-21.5-10.48c-19.19-10.63-38.52-21.14-59.59-27.75-8.58-2.7-15.4-7.78-21.44-14.13-13.56-14.26-29-25.43-48.59-29.85a16.83,16.83,0,0,1-9.81-6.52c-6-7.94-14.63-11.14-23.53-14.24-9.44-3.29-18.71-7-28-10.68-3.09-1.21-6.34-2.31-9.08-4.12-20.79-13.77-44.38-20.63-67.64-28.69-23.87-8.27-47.13-18.36-70.5-28-14.76-6.1-29.28-12.68-43-21.09-7.32-4.49-15.65-7.37-23.64-10.69-14.88-6.18-28.92-13.43-40.05-25.63-9.11-10-21.92-15-32.81-22.58-4.46-3.11-10.24-3-15.55-2.69-12.1.7-22.39-3.7-31.11-11.38-11.22-9.88-26-13.52-37.76-22.26-2-1.48-5-1.94-7.58-2.3-10.39-1.43-18.81-6.37-26-13.8-5.13-5.32-11.67-8.8-17.45-13.21-17.45-13.33-35.21-26-54.71-36.3-8.13-4.32-14.19-12.07-19.48-19.83-4.23-6.2-9.31-11.3-16.06-14.63-11.05-5.44-19.66-14-27-23.39-8-10.14-17.62-18-27.74-25.66-3.19-2.4-7-4.33-9.42-7.35-21.14-26.06-48.62-45.22-73.08-67.65a111.25,111.25,0,0,1-13.27-14.86c-4.82-6.35-9.87-12.56-15.26-18.42a97.12,97.12,0,0,1-13.29-17.43c-2.62-4.58-5.44-9.41-9.29-12.9-22.64-20.49-42.07-44.47-67.35-62.12a94.28,94.28,0,0,1-15.18-12.92c-19.08-20.55-40.72-38.32-61.47-57.06a37.4,37.4,0,0,0-6.22-5c-18.83-10.74-33.47-26.36-48.18-41.76-29.48-30.86-63.12-57.27-92.61-88.14-29-30.36-58.86-59.94-89.1-89.06-16.75-16.12-35.44-30.21-52.56-46-15.22-14-31.51-26.6-47.41-39.75-21.52-17.81-45.21-30.36-72.14-37.15v-344c8.95.75,17.08,3.42,22.78,10.81,4.25,5.52,10.15,8.23,16.1,11.37,12.34,6.51,24.94,12.77,35.41,22.28a47.05,47.05,0,0,0,15.41,9.06c9,3.41,16.73,8.06,19.54,18.34a15.67,15.67,0,0,0,9,10.23c9.49,4.09,16.52,10.92,23.09,18.62,4.78,5.62,11.21,9.39,17.7,12.88,20.6,11.08,39.94,23.86,56.21,40.94a46.13,46.13,0,0,0,11.23,8.13c17.52,9.65,34.63,19.79,48.68,34.4,3.2,3.32,7.22,5.89,11,8.59a271.93,271.93,0,0,1,53.86,50.34c2.08,2.57,4.24,5.53,7,6.95,10.52,5.36,17.89,13.64,23.86,23.51,2.81,4.64,7,8,11.24,11.23,29.11,22.3,57.31,45.64,82.19,72.74a47.56,47.56,0,0,0,9.11,7.76c24.06,15.5,46.71,32.95,69.49,50.24,19.63,14.91,38.88,30.59,59.86,43.35,18.19,11.07,34.68,24.58,53.39,34.87,11.62,6.38,23.58,12.57,34.39,20,13.84,9.56,28.75,16.73,43.44,24.53,12.35,6.55,24.25,14.06,36.92,19.91,26,12,47.82,31.83,76.18,39.22,4.36,1.13,8.05,4.63,12.24,6.66,14.36,6.95,28,15.28,43.15,20.75,10,3.63,19.66,8.19,29.44,12.4,8.56,3.68,16.88,8.08,25.68,11a126.71,126.71,0,0,1,32.05,16c13.8,9.5,28.3,17.5,45.29,20.08,4.52.68,8.84,2.9,13.15,4.67,30.21,12.36,59.13,27.63,89.63,39.42,11.78,4.56,22.81,10.71,35.81,11.77,4.43.36,9,2.63,12.92,5,7.54,4.47,15.7,7.23,23.82,10.26,18,6.72,36.89,11.26,53.83,20.86,7.47,4.24,14.72,8.63,22.86,12,31.29,12.87,65.9,16.91,94.93,35.71a19.94,19.94,0,0,0,3.67,1.56,1021.86,1021.86,0,0,0,119.71,38.42c6.37,1.64,13,3.95,18.34,7.6,19.16,13,42.85,13.41,63,23.44a5.56,5.56,0,0,0,2,.26,38.85,38.85,0,0,1,21.91,8.82c5.36,4.35,11.45,6.44,18.28,7.27,19.43,2.39,37.44,9.3,54.68,18.28a56.54,56.54,0,0,0,16.93,5.57c20.78,3.59,42.7,2.19,61.7,14,2.64,1.63,6.43,1.63,9.72,2,8.73.86,16.89,3.66,25,6.71,6.22,2.33,12.7,4,18.92,6.36,19.4,7.35,40.36,7.87,60.14,14.11,11.48,3.63,22.11,9.25,33.72,12.24,15.48,4,31,7.68,45.92,13.78,4.79,2,10.38,2.07,15.63,2.81,14.5,2.05,29.3,2.78,43.45,6.23,20,4.89,40.33,9,59.66,16.55,7.45,2.91,15.21,5.23,23.33,5.07,15.39-.3,30.5,2.21,45.74,3.61,14.21,1.32,27.59,4.13,40.3,10.45,4.81,2.39,9.72,4.29,15.3,3.85,21-1.66,41.07,2.19,60.44,10.08,6.92,2.82,14.1,3.48,21.4,4.41,13.85,1.77,28,3.11,41.3,7,22.57,6.5,45.66,9.88,68.77,12.21,25.42,2.56,49.65,9.78,74.14,15.9,13.58,3.39,27,7.26,40.93,8.65a129.49,129.49,0,0,1,29.24,6.34c16.89,5.8,34.85,8.3,50.74,17.38,5,2.84,11.51,3,17.35,4.27,4.56,1,9.26,1.39,13.71,2.67,23.06,6.64,46.34,12.63,69,20.5,16.86,5.86,33,13.23,51,16.16,13.71,2.23,27.05,7,40.38,11.2,29.07,9.14,60.11,12,87.29,27.21a15.45,15.45,0,0,0,5.74,1.64c11.46,1.33,21.73,6.36,32.2,10.58a511.49,511.49,0,0,0,56.82,19.08,197.57,197.57,0,0,1,26.57,8.74c23.89,10.33,48.66,18.14,73.17,26.72,57.8,20.24,117,36.34,174.29,58.05,4.35,1.66,8.88,2.86,13.34,4.23,12.74,3.9,25.52,7.67,38.23,11.7,47.64,15.1,95.44,29.7,143.94,41.86,51.05,12.81,102.56,23.88,152.52,40.76,5,1.7,10.4,2.32,15.58,3.54,25.28,5.95,51,10.61,75.72,18.28,26.17,8.11,52.56,14.8,79.32,20.29a115.72,115.72,0,0,1,11.62,3c19.19,6,38.84,9,58.9,10.17,10.63.61,21.41,0,31.83,1.19,28.41,3.2,56.95,4.51,85.25,9.63,61.64,11.17,120,30.38,173.68,63.05a249.78,249.78,0,0,0,60.2,26.63c17.82,5.17,36.39,7.71,54.63,11.41,7.18,1.45,14.65,2,21.48,4.48,20.05,7.11,41.22,11.21,59.92,22a52.16,52.16,0,0,0,9.21,3.84c44.16,15.25,89.45,26.43,135.16,35.69q63.57,12.89,127.4,24.49c25.55,4.66,50.42,12,76.12,16.19,31.51,5.14,62.57,13.07,93.93,19.39,29.3,5.89,59.3,8.95,87.71,19.13,4.31,1.54,9.11,2,13.74,2.37,37.28,3.37,73.29,13.51,109.88,20.54,18.3,3.52,36.41,8.07,54.68,11.77,21.52,4.36,43.27,7.71,64.67,12.56,33.11,7.5,65.71,17.36,99.76,20.29,3.93.34,7.73,2,11.62,2.89,35,8,70,16.28,105.1,23.92,49.44,10.78,99.42,19.21,148,33.6,5.1,1.51,10.41,2.27,15.62,3.4,19.54,4.2,39.36,7.43,58.56,12.86,28.81,8.14,57.59,16.06,86.93,22.38,33.13,7.13,66.17,15.59,98.28,26.34,22.71,7.6,45.65,14.4,68.44,21.69,10.76,3.44,22.41,4.47,32.75,8.76,25.93,10.76,53.27,17.19,79.41,27.2a57.1,57.1,0,0,0,17.51,3.64c10.76.5,21.09,2.85,31.51,5.18,6.47,1.45,13.1,2.82,19.69,3,10.79.26,21.16,2.33,31.52,4.95,9.69,2.44,19.42,4.75,29.13,7.12Z" transform="translate(-4191.5 -5507.5)"/><path class="cls-4" d="M8075.5,5507.5h2132v1204c-28.84-19.48-60.1-34.39-91.91-48.16-76.16-33-155.78-54.65-236.73-71.89-129.9-27.66-261.56-43-393.59-55.44-84.89-8-170-13.91-254.62-24.69-65.51-8.34-130.27-20.43-193.76-39-65.36-19.1-128.53-44.08-190.94-71-63.61-27.48-127-55.46-190.61-82.92a878.48,878.48,0,0,0-169.24-53.85c-36.52-7.6-73.21-14.4-109.91-21.07-38.94-7.09-76.44-18.15-111.28-37.38-15.75-8.7-31.78-16.88-47.6-25.43-46-24.9-94.89-42.17-145.85-53.67-71.81-16.2-144.7-22.75-218.15-23.94-80-1.3-159.9.22-239.66,7.12-21.89,1.9-43.87,2.68-65.82,4-1.91-7.29-5-14.18-11.62-18.06-15.71-9.19-27.45-23.19-42-33.73-12.18-8.83-21.92-19.29-25-34.8-1.29-6.49-4.11-12.66-5.62-19.11-1.39-6-3.19-11.64-8.06-15.66s-7.19-9.21-8-15.5a40.39,40.39,0,0,0-3.78-13.31c-3.78-7.28-2.8-13.95.18-21.07,5.13-12.3,9.8-24.79,14.8-37.15,2.28-5.63,4.48-11.29,2.9-17.42-3.71-14.32.42-27.25,4.93-40.83,8.6-25.87,15.88-52.29,6.54-79.84a15.18,15.18,0,0,1-.53-3.95c-.46-7.21,3.81-12.82,11-14.51,5.34-1.25,10.62-.64,15.81.77,15.43,4.2,31,8.09,46.22,12.81,61.83,19.08,121.74,43.44,181.65,67.63,43.25,17.46,86.85,34,130.13,51.39,9.27,3.72,18.91,6.48,28.37,9.72,14.7,5,29.81,2.46,43-2.76,12.13-4.81,23-12.85,36.37-15.42,2.44-.47,4.62-2.56,6.8-4.08,17.12-11.93,36.15-19.65,55.8-26.38,26.32-9,51.48-21.43,79-26.91a13.28,13.28,0,0,0,1.85-.75c30.1-11.32,61.62-17.65,93.07-22.6,28-4.42,55.65-12.79,84.43-12.44a14.38,14.38,0,0,0,3.94-.61c15-4.12,30.31-3.87,45.66-3.95,13.31-.06,26.78.43,39.89-1.42,22.65-3.2,45-3.73,67.6.13a77,77,0,0,0,17.91,1.21c22.81-1.52,45.12,3.29,67.65,5.1,33.14,2.67,65.82,9.71,99.12,11.37a36.54,36.54,0,0,1,11.68,2.37c8.74,3.52,17.93,5,27,7.16,20.1,4.73,40.46,8.71,60.12,14.85,19.83,6.2,40.16,9.59,60.34,13.89,3.12.67,6.56.06,9.82-.31,2.25-.25,3.44-4.85,2-6.64-4.44-5.37-10.93-7.47-16.8-10.47q-93.44-47.88-189.89-89.29c-62.5-26.79-125.76-51.6-190.2-73.28-34.09-11.47-68.5-22.16-103.17-31.69-50.74-14-101.68-27.26-153.57-36.46-14.42-2.56-28.75-5.8-43-9.37-25.51-6.41-33.18-18.07-28.83-43.45C8074.64,5522.06,8075.81,5514.87,8075.5,5507.5Z" transform="translate(-4191.5 -5507.5)"/><path class="cls-5" d="M10207.5,8527.5c-9.71-2.37-19.44-4.68-29.13-7.12-10.36-2.62-20.73-4.69-31.52-4.95-6.59-.16-13.22-1.53-19.69-3-10.42-2.33-20.75-4.68-31.51-5.18a57.1,57.1,0,0,1-17.51-3.64c-26.14-10-53.48-16.44-79.41-27.2-10.34-4.29-22-5.32-32.75-8.76-22.79-7.29-45.73-14.09-68.44-21.69-32.11-10.75-65.15-19.21-98.28-26.34-29.34-6.32-58.12-14.24-86.93-22.38-19.2-5.43-39-8.66-58.56-12.86-5.21-1.13-10.52-1.89-15.62-3.4-48.62-14.39-98.6-22.82-148-33.6-35.11-7.64-70.08-15.9-105.1-23.92-3.89-.89-7.69-2.55-11.62-2.89-34-2.93-66.65-12.79-99.76-20.29-21.4-4.85-43.15-8.2-64.67-12.56-18.27-3.7-36.38-8.25-54.68-11.77-36.59-7-72.6-17.17-109.88-20.54-4.63-.42-9.43-.83-13.74-2.37-28.41-10.18-58.41-13.24-87.71-19.13-31.36-6.32-62.42-14.25-93.93-19.39-25.7-4.19-50.57-11.53-76.12-16.19q-63.81-11.64-127.4-24.49c-45.71-9.26-91-20.44-135.16-35.69a52.16,52.16,0,0,1-9.21-3.84c-18.7-10.83-39.87-14.93-59.92-22-6.83-2.43-14.3-3-21.48-4.48-18.24-3.7-36.81-6.24-54.63-11.41a249.78,249.78,0,0,1-60.2-26.63c-53.7-32.67-112-51.88-173.68-63.05-28.3-5.12-56.84-6.43-85.25-9.63-10.42-1.18-21.2-.58-31.83-1.19-20.06-1.15-39.71-4.13-58.9-10.17a115.72,115.72,0,0,0-11.62-3c-26.76-5.49-53.15-12.18-79.32-20.29-24.75-7.67-50.44-12.33-75.72-18.28-5.18-1.22-10.56-1.84-15.58-3.54-50-16.88-101.47-28-152.52-40.76-48.5-12.16-96.3-26.76-143.94-41.86-12.71-4-25.49-7.8-38.23-11.7-4.46-1.37-9-2.57-13.34-4.23-57.31-21.71-116.49-37.81-174.29-58.05-24.51-8.58-49.28-16.39-73.17-26.72a197.57,197.57,0,0,0-26.57-8.74,511.49,511.49,0,0,1-56.82-19.08c-10.47-4.22-20.74-9.25-32.2-10.58a15.45,15.45,0,0,1-5.74-1.64c-27.18-15.22-58.22-18.07-87.29-27.21-13.33-4.19-26.67-9-40.38-11.2-17.95-2.93-34.12-10.3-51-16.16-22.64-7.87-45.92-13.86-69-20.5-4.45-1.28-9.15-1.69-13.71-2.67-5.84-1.25-12.38-1.43-17.35-4.27-15.89-9.08-33.85-11.58-50.74-17.38a129.49,129.49,0,0,0-29.24-6.34c-13.93-1.39-27.35-5.26-40.93-8.65-24.49-6.12-48.72-13.34-74.14-15.9-23.11-2.33-46.2-5.71-68.77-12.21-13.33-3.85-27.45-5.19-41.3-7-7.3-.93-14.48-1.59-21.4-4.41-19.37-7.89-39.47-11.74-60.44-10.08-5.58.44-10.49-1.46-15.3-3.85-12.71-6.32-26.09-9.13-40.3-10.45-15.24-1.4-30.35-3.91-45.74-3.61-8.12.16-15.88-2.16-23.33-5.07-19.33-7.56-39.64-11.66-59.66-16.55-14.15-3.45-28.95-4.18-43.45-6.23-5.25-.74-10.84-.85-15.63-2.81-14.89-6.1-30.44-9.78-45.92-13.78-11.61-3-22.24-8.61-33.72-12.24-19.78-6.24-40.74-6.76-60.14-14.11-6.22-2.36-12.7-4-18.92-6.36-8.14-3.05-16.3-5.85-25-6.71-3.29-.33-7.08-.33-9.72-2-19-11.8-40.92-10.4-61.7-14a56.54,56.54,0,0,1-16.93-5.57c-17.24-9-35.25-15.89-54.68-18.28-6.83-.83-12.92-2.92-18.28-7.27a38.85,38.85,0,0,0-21.91-8.82,5.56,5.56,0,0,1-2-.26c-20.16-10-43.85-10.42-63-23.44-5.37-3.65-12-6-18.34-7.6A1021.86,1021.86,0,0,1,5577.13,7326a19.94,19.94,0,0,1-3.67-1.56c-29-18.8-63.64-22.84-94.93-35.71-8.14-3.35-15.39-7.74-22.86-12-16.94-9.6-35.8-14.14-53.83-20.86-8.12-3-16.28-5.79-23.82-10.26-3.94-2.34-8.49-4.61-12.92-5-13-1.06-24-7.21-35.81-11.77-30.5-11.79-59.42-27.06-89.63-39.42-4.31-1.77-8.63-4-13.15-4.67-17-2.58-31.49-10.58-45.29-20.08a126.71,126.71,0,0,0-32.05-16c-8.8-2.94-17.12-7.34-25.68-11-9.78-4.21-19.44-8.77-29.44-12.4-15.11-5.47-28.79-13.8-43.15-20.75-4.19-2-7.88-5.53-12.24-6.66-28.36-7.39-50.23-27.23-76.18-39.22-12.67-5.85-24.57-13.36-36.92-19.91-14.69-7.8-29.6-15-43.44-24.53-10.81-7.46-22.77-13.65-34.39-20-18.71-10.29-35.2-23.8-53.39-34.87-21-12.76-40.23-28.44-59.86-43.35-22.78-17.29-45.43-34.74-69.49-50.24a47.56,47.56,0,0,1-9.11-7.76c-24.88-27.1-53.08-50.44-82.19-72.74-4.27-3.26-8.43-6.59-11.24-11.23-6-9.87-13.34-18.15-23.86-23.51-2.8-1.42-5-4.38-7-6.95a271.93,271.93,0,0,0-53.86-50.34c-3.79-2.7-7.81-5.27-11-8.59-14.05-14.61-31.16-24.75-48.68-34.4a46.13,46.13,0,0,1-11.23-8.13c-16.27-17.08-35.61-29.86-56.21-40.94-6.49-3.49-12.92-7.26-17.7-12.88-6.57-7.7-13.6-14.53-23.09-18.62a15.67,15.67,0,0,1-9-10.23c-2.81-10.28-10.53-14.93-19.54-18.34a47.05,47.05,0,0,1-15.41-9.06c-10.47-9.51-23.07-15.77-35.41-22.28-5.95-3.14-11.85-5.85-16.1-11.37-5.7-7.39-13.83-10.06-22.78-10.81v-480c13.1,1.39,24,7.86,34.26,15.39,32.2,23.65,65.41,45.93,95.62,72.26,15,13.11,32,24.07,46.69,37.49,21.68,19.79,45.37,37,67.58,56.14a404.14,404.14,0,0,0,59.9,42.89c10.58,6.17,20,13,27.07,23.11,1.52,2.18,2.81,4.82,4.9,6.27,17.7,12.27,30.3,29.81,46,44.08,7.4,6.71,13.2,14.78,21,21.28,18.86,15.8,36.72,32.8,54.82,49.49,7.35,6.77,14.39,13.9,19.79,22.44a13.1,13.1,0,0,0,2.46,3.14c19.51,16.17,34,37.25,52.86,54a57.62,57.62,0,0,1,12.44,15.49c6.15,11.24,14.44,20.65,24.13,29,8.56,7.41,16.59,15.4,23.13,24.8a88,88,0,0,0,10.43,12.07q37.62,37.31,75.43,74.42a54.74,54.74,0,0,1,4.3,4.17c15.64,19.11,33.81,35.72,51.55,52.78,35.08,33.72,71.59,65.72,111.44,93.76,4.88,3.44,10,6.85,15.48,9.05,22.45,9,42.53,22.13,62.61,35.25,11.73,7.66,23.21,15.55,36.71,20.05a77.62,77.62,0,0,1,16.16,7.86c23.87,14.87,50.19,24.71,75.69,36,15.57,6.91,32.6,10.77,49.7,14.25,29.92,6.1,60.14,11.39,89.43,20.48,7,2.18,14.1,4,21.2,5.82,29,7.37,58.1,14.61,87.11,22.07,4.49,1.15,8.73,3.24,13.12,4.81,12.55,4.49,25,9.4,38.49,10.35a15.26,15.26,0,0,1,3.93.67c24.55,8.53,50.39,12.5,74.76,21.85,13.63,5.22,28,8.42,42.11,12.47,39.71,11.42,79.35,23,119.14,34.14q65.44,18.27,131.1,35.75c43.75,11.72,87.59,23.11,131.39,34.67,3.21.85,6.57,1.49,9.5,2.95,32.4,16.09,67.05,25.93,101.39,36.55,68.76,21.27,137.71,41.9,206.46,63.2q58.24,18.06,116.07,37.44,91,30.51,180.07,66.37c35.2,14.21,69.81,30,104.25,46,102.75,47.74,205.58,95.3,306.61,146.65,41.61,21.16,82.23,44.05,123,66.69,48.94,27.16,98.2,53.75,147.43,80.38,48.67,26.32,98.18,51,148,75.13,31.18,15.11,62.5,29.94,93.79,44.84a92.4,92.4,0,0,0,12.88,5.45c47.28,14.25,91.46,36.64,137.93,52.87,35.15,12.27,70,25.56,106.5,34.05,36.31,8.45,72.11,19.16,108.08,29.06q51.1,14.05,102.82,25.53,50.74,11.15,101.29,23.18a560.64,560.64,0,0,0,78.72,12.74c27.31,2.56,54.57,1.68,81.74,3.6,21.29,1.51,42.26,2.12,63.52-.13a117,117,0,0,1,39.77,2.35,52.73,52.73,0,0,0,11.91,1.18c34.74.27,68.93,5.77,103.18,10.71,9.88,1.43,19.85,2.23,29.73,3.61,48.15,6.69,95.88,15.82,143.73,24.29q45.27,8,90.3,17.09c20.23,4.11,40.09,10.11,60.38,13.77,33.62,6.06,65.41,18,97.72,28.35,12.66,4.06,25.81,6.57,38.6,10.25,17.27,5,34.53,10,51.56,15.77,12.71,4.28,25.42,7.6,38.88,8.57a229.31,229.31,0,0,1,31.61,4.59c13.17,2.85,26.4,3.25,39.75,3.2,24.66-.1,49.33-.15,74,0,10.73.06,21.15-1.54,31.68-3.53,21.55-4.08,42.47-10.79,64.3-13.84,12.42-1.73,24.41-6.56,36.63-9.87,7.06-1.9,14.19-3.62,21.32-5.28,13.57-3.14,27.2-5.59,40.61-9.92,15.08-4.88,31.29-6.29,47-9.16,3.93-.71,8.22-.46,11.79-2,18.67-7.93,38.79-9.1,58.27-13.28,25.39-5.44,50.73-11,76.53-14.16,19.8-2.43,39.79-3.69,59.4-7.17,25.08-4.46,50.45-3.77,75.63-5.48,19.74-1.33,39.79,1.89,59.69,3.28,5.3.37,10.54,1.94,15.83,2.08,22.61.57,45.16,1.93,67.74,3.38,27.42,1.77,54.18,6.54,81.12,10.71,27.66,4.28,54.75,11.33,81.69,18.89,2.56.72,5.13,1.9,7.72,2,22.4.88,42.93,8.81,63.58,16.43a168.61,168.61,0,0,0,19.21,5.49c11.08,2.64,21.58,6.35,31.49,12.23,9.1,5.41,18.45,10.95,29.7,10.84Z" transform="translate(-4191.5 -5507.5)"/><path class="cls-6" d="M4191.5,7919.5c11.9,1.45,20.61,9,29.52,15.89a26.37,26.37,0,0,1,9.84,17c2.68,16.87,11.67,29.45,25.25,39.17,5.05,3.61,8.4,8.56,10.88,14.07,4.31,9.59,10.24,16.71,21.41,18.95,8.53,1.71,14,7,13.82,16.86-.13,6.23,4.55,9.9,9.92,11.09,20.11,4.5,37.88,16.46,58.84,18.16,6.8.56,12.74,3.43,18.27,7.46,7.75,5.66,16.76,7.86,26.2,8.82,5.95.6,11.84,1.85,17.79,2.47,14.38,1.5,26.84,7.39,38.07,16.22a92.33,92.33,0,0,0,41.31,18.94c8.49,1.53,16.73,4.42,25.07,6.76,1.92.53,4.42.72,5.55,2,12.65,14.6,34.29,14.68,46.94,29.23a10.76,10.76,0,0,0,5.18,2.91c14.45,3.79,27.36,10.27,38.25,20.7,3.58,3.44,8.34,3.9,13.15,3.18,7.95-1.19,14.4,2,20,7.16a92,92,0,0,0,45.68,23.26,26.22,26.22,0,0,1,9.07,4,254.51,254.51,0,0,0,64.86,30.36,106.18,106.18,0,0,1,14.71,6.17c16.61,8,35.44,11.21,50,23.78,3.22,2.78,8.81,2.71,13.2,4.25,14.41,5,29.95,6.89,43.15,15.39,1.64,1.06,3.71,2.15,5.55,2.09,15.73-.57,27.39,8.58,40.09,15.81a151.5,151.5,0,0,0,52.68,17.95c9.82,1.49,19.46,4.51,29,7.44,20.37,6.26,40.79,12.42,60.85,19.56,15.19,5.4,30.75,8.63,46.54,11.16a83.21,83.21,0,0,1,29.83,10.63c14.48,8.56,30.92,12.41,47.47,14.32,10.72,1.24,21,2.3,30.43,8.25,10.48,6.64,23.86,2.5,34.58,8.75s22.44,7.78,34.67,7.69c5.93-.05,11.93,1.09,17.78,2.3,6.51,1.34,13.19,2.64,19.25,5.25,17.95,7.73,36.87,11.12,55.93,14.53,23.59,4.21,47,9.59,70.46,14.42,5.86,1.21,11.76,2.26,17.65,3.38,16.34,3.11,32.82,5.22,48.91,9.91a170.12,170.12,0,0,0,41.38,6.31,328,328,0,0,1,43.61,4.88,202.32,202.32,0,0,0,37.78,2.84c9.45-.13,18.91.59,27.27,5.06,9.67,5.16,20.06,6.84,30.58,8.56,23.68,3.87,47.34,7.47,71.49,6.46,13.32-.57,26.65-.27,39.76,2.87a41.83,41.83,0,0,0,9.94.9c17.38-.19,34.55.41,51.28,6.34,5.46,1.93,11.84,1.61,17.8,1.71,13.33.24,26.67.3,40,.07,18.73-.32,37.33,0,55.4,5.86a27.39,27.39,0,0,0,7.84,1.48c18.66.32,37.14,2.5,55.69,4.42,41,4.24,82.39,4.2,123.13,11.39a86.34,86.34,0,0,0,13.95.83c17.3.24,34.49,1.35,51.77,2.88,20.5,1.82,41.08,3.54,61.61,5.36,25.16,2.24,50.23,5.58,75.34,8.46,4.63.54,9.53,2.46,13.8,1.51,15-3.33,29.09.91,43.47,3.41,6.54,1.14,13.2,1.62,19.79,2.44s13.31,1.16,19.75,2.67a391.39,391.39,0,0,0,65.13,9.54c3.31.21,6.76.33,9.87,1.35,25.56,8.31,52.5,8.63,78.61,13.75,11.09,2.17,22.4,3.24,33.52,5.31,9.19,1.71,18.3,3.64,27.71,3.47a15.05,15.05,0,0,1,4,.22c34.92,9.2,71.53,7.07,106.5,15.92,5.81,1.47,11.63,2.9,17.36,4.64,14.74,4.47,29.61,8,45.18,7.19a18.86,18.86,0,0,1,6,.24c25.75,7.37,52.76,6.42,78.8,12.16,24.69,5.45,49,12.31,74.05,16.64,14.3,2.47,28.23,7.31,42.95,8.15a30.78,30.78,0,0,1,9.61,2.63c28.06,11.56,58,14.86,87.58,19.32a475,475,0,0,1,54.57,12c7.73,2.11,15.33,4.48,23.41,4.87,3.31.16,6.89.23,9.83,1.51,18.57,8.07,38.76,9.46,58.08,14.4a64.12,64.12,0,0,0,13.78,1.57c14,.45,27.73,2.37,41.13,6.9a136.94,136.94,0,0,0,41.13,7.48c4,.08,8.07-.12,12,.55,22.29,3.81,44.73,7,66.74,12,25.39,5.81,50.78,10.81,76.87,11.59a12.07,12.07,0,0,1,4,.33c20.16,8,41.88,6.63,62.73,10.52a602.32,602.32,0,0,0,73.2,9.52c23.18,1.45,46.17,6.08,69.24,9.3,4.61.65,9.23,1.87,13.84,1.84,24.76-.19,49,4.77,73.45,7.26,15.85,1.61,31.94,1,47.93,1,11.41,0,22.51,1.09,33.5,4.53a82.64,82.64,0,0,0,19.6,3.32c27.2,1.64,54.41,2.9,81.62,4.3a10,10,0,0,1,2,.12c26.7,7.23,54,3.82,81.08,5.08,31.86,1.49,63.62,5.11,95.42,7.79,4.63.39,9.37,1.5,13.87.91,30.57-4,61.25-1.11,91.86-2,41.64,6.89,83.85,1.31,125.55,5.66,28.43,3,57.35,1,85.35,8.3,1.92.49,4.07,1.16,5.91.78,22.63-4.72,45,3,67.59,1.4,7.2-.52,14.57,1.05,21.84,1.8,3.31.34,6.61,1.61,9.86,1.46,24.08-1.14,47.69,4.74,71.7,4.66,6,0,11.92,1.05,17.86,1.76,3.31.39,6.57,1.47,9.86,1.53,24.63.47,49.17,1.62,73.72,4.18,15.15,1.59,30.47,1.64,45.73,3.47s30.6.75,45.93.93c19.29.22,38.49,0,57.77,3.07,19.65,3.09,39.73,3.43,59.62,5,4.65.38,9.32.71,13.89,1.52,20.34,3.61,40.62,7.51,61.46,6.54,6.87-.32,13.46.8,16.69,8.25h-4948Z" transform="translate(-4191.5 -5507.5)"/><path class="cls-7" d="M8075.5,5507.5c.31,7.37-.86,14.56-2.11,21.82-4.35,25.38,3.32,37,28.83,43.45,14.21,3.57,28.54,6.81,43,9.37,51.89,9.2,102.83,22.5,153.57,36.46,34.67,9.53,69.08,20.22,103.17,31.69,64.44,21.68,127.7,46.49,190.2,73.28q96.5,41.37,189.89,89.29c5.87,3,12.36,5.1,16.8,10.47,1.48,1.79.29,6.39-2,6.64-3.26.37-6.7,1-9.82.31-20.18-4.3-40.51-7.69-60.34-13.89-19.66-6.14-40-10.12-60.12-14.85-9.07-2.14-18.26-3.64-27-7.16a36.54,36.54,0,0,0-11.68-2.37c-33.3-1.66-66-8.7-99.12-11.37-22.53-1.81-44.84-6.62-67.65-5.1a77,77,0,0,1-17.91-1.21c-22.55-3.86-44.95-3.33-67.6-.13-13.11,1.85-26.58,1.36-39.89,1.42-15.35.08-30.68-.17-45.66,3.95a14.38,14.38,0,0,1-3.94.61c-28.78-.35-56.38,8-84.43,12.44-31.45,4.95-63,11.28-93.07,22.6a13.28,13.28,0,0,1-1.85.75c-27.54,5.48-52.7,17.89-79,26.91-19.65,6.73-38.68,14.45-55.8,26.38-2.18,1.52-4.36,3.61-6.8,4.08-13.33,2.57-24.24,10.61-36.37,15.42-13.16,5.22-28.27,7.79-43,2.76-9.46-3.24-19.1-6-28.37-9.72-43.28-17.36-86.88-33.93-130.13-51.39-59.91-24.19-119.82-48.55-181.65-67.63-15.27-4.72-30.79-8.61-46.22-12.81-5.19-1.41-10.47-2-15.81-.77-7.22,1.69-11.49,7.3-11,14.51a15.18,15.18,0,0,0,.53,3.95c9.34,27.55,2.06,54-6.54,79.84-4.51,13.58-8.64,26.51-4.93,40.83,1.58,6.13-.62,11.79-2.9,17.42-5,12.36-9.67,24.85-14.8,37.15-3,7.12-4,13.79-.18,21.07a40.39,40.39,0,0,1,3.78,13.31c.79,6.29,3,11.43,8,15.5s6.67,9.66,8.06,15.66c1.51,6.45,4.33,12.62,5.62,19.11,3.07,15.51,12.81,26,25,34.8,14.55,10.54,26.29,24.54,42,33.73,6.61,3.88,9.71,10.77,11.63,18.06-6.59.74-13.16,1.79-19.77,2.15-33.2,1.81-66.43,3-99.6,5.21-67.22,4.44-134.3,1.32-201.32-3.24-35.14-2.4-70.15-6.73-105.21-10.17-62.91-6.18-125.38-15.38-187.55-26.75-68.11-12.45-134.81-30.89-201.94-47.5-7.07-1.75-13.95-4.52-21.44-4.09-33.83-9-67.64-18.14-101.52-27-16.6-4.35-33.33-8.25-50-12.36-3.47-2.94-7.65-3.37-11.95-3.39-93.19-73.32-191.14-139.74-291.67-202.53-158-98.72-325.23-178.6-499.38-244.32-21.78-8.22-43.65-16.2-65.44-24.4-5.5-2.08-11.68-3-15.55-8.23Z" transform="translate(-4191.5 -5507.5)"/><path class="cls-8" d="M10207.5,7663.5a62.78,62.78,0,0,1-19-5.91c-16.29-7.6-32.63-15.11-49.08-22.36a144.33,144.33,0,0,0-20.61-7.59c-31.53-8.44-63.13-16.58-94.73-24.75-7.09-1.83-14.38-3-21.38-5.1-12.14-3.7-24.28-6.66-37.12-7.28-7.87-.37-15.73-2.73-23.44-4.78-29.07-7.73-58.86-11-88.58-14.75-14.52-1.84-29-4-43.48-6.21-27-4.09-54.09-7-81.16-10.32-31.7-3.84-64-1.76-95.27-9.4a41.65,41.65,0,0,0-17.81-.42c-9.65,2-18.16.26-27.17-3.13-10.56-4-21.66-6.52-32.61-9.4-22.17-5.81-42.3-15.67-61.12-28.78a438.36,438.36,0,0,1-80.43-71.48c-24.09-27.58-50-53.56-74.94-80.39-39.14-42.1-87.68-68.91-141.46-87.18-34.18-11.61-69.45-18.56-105-24.3-73.76-11.9-146.76-27.13-217.65-51.18-67.23-22.81-130.72-53.23-189.67-93q-73.73-49.77-148-98.67c-55.34-36.44-114.59-65-176.54-88.5-91.08-34.5-183.85-63.53-277.94-88.55-73.57-19.57-145-45.22-213.78-78-39.38-18.75-75.17-42.91-108.08-71.4-15.57-13.48-32.69-25.24-46.17-41.09a20.92,20.92,0,0,1,14.66-5.33c13.42.5,26.45-2.36,39.54-4.53,19.65-3.24,39.53-5.78,58.76-10.76a427.45,427.45,0,0,1,86.42-12.94c41.4-2,82,6.57,123,9.49,31.15,2.22,61.55,10.64,92.93,10.8a72.29,72.29,0,0,1,11.83,1.59q90.3,15.87,180.59,31.8c22.91,4,45.84,8,68.73,12.06,5.34,1,10.53,1.73,15.38-1.56l12.08,2.39c2.14,3.27,4.77,4,8,1.53,4,.39,8,.52,11.9,1.2,44,7.67,88,15.16,131.93,23.2,161.91,29.65,323.56,60.58,484.44,95.44,136.13,29.5,271.73,61.2,405.55,100.06,101.82,29.57,202.67,62.08,300.28,103.68,63.75,27.17,126.93,55.7,190.08,84.26,76.6,34.64,154.71,65.28,234.92,90.47,6.92,2.17,13.61,5.67,21.23,5.07Z" transform="translate(-4191.5 -5507.5)"/><path class="cls-9" d="M8419.17,6662.59l-12.07-2.39c-2.88-3.52-7.17-4-11.13-5.26-2-4.3-4.74-5.95-8.81-2.24l-7.4-1.34c-1.84-4.52-4.41-6.37-8.6-2.37l-7.43-1.51c-2.07-4.68-6-6.93-10.7-8.21-9.63-2.61-19.22-5.44-28.93-7.77-29.8-7.16-59.76-13.71-89.46-21.26-45.16-11.49-89-27.52-134.07-39.44-36.68-9.68-72.44-22.82-108.62-34.36-22.86-7.29-46.1-13.5-68.54-21.87-41.84-15.61-84-30.15-126.3-44.47-30.92-10.47-62-20.52-92.37-32.55-44.68-17.74-90.58-31.55-136.36-45.85-12.07-3.78-23.91-8.29-36-11.91-28.85-8.61-58.7-12.17-88.42-15.73-15.14-1.82-30.16-5.07-45.66-4.7-24.64.58-49.32.52-74,0-14.84-.29-29.07,3.55-43.64,4.86-4.27.38-7.13,3.32-9.19,7q-25.74-8-51.46-15.93c-64.91-20-129.75-40.21-194.75-59.92-126.2-38.26-238.2-102.22-338.88-186.71-15.81-13.28-31.11-27.16-46.52-40.91q-40.21-35.89-80.27-72c0-1.8-.07-3.61-.1-5.41,16.67,4.11,33.4,8,50,12.36,33.88,8.88,67.69,18,101.52,27,8.84,11.23,21.08,18.22,32.63,26.05,6.06,4.1,11.9,9,19.19,10.49,19.74,4.13,37.61,13.16,56.28,20.17,41.15,15.44,82.75,29.81,127,34.29,11.9,1.21,23.64,4.24,35.55,5.26,23.28,2,45.74,8.86,69.12,10.46,16.55,1.13,33,4.07,49.37,7.16,14.48,2.75,28.92,4.64,43.66,4.11,11.37-.42,22.54,1,33.74,3.16,40.54,8,81.72,11.46,122.64,16.81,18.47,2.42,36.95,4.78,55.47,6.79,29.75,3.21,59.49,7.17,89.34,8.81,24.59,1.35,48.94,6,73.67,5a21.46,21.46,0,0,1,5.92.86c10.47,2.6,21.13,2.57,31.81,2.57q62,0,124,0c20,0,40-1.17,59.75,3.28,4.48,1,9.29.58,14,.65,22.62.31,45.33-1.33,67.73,3.56,3.2.7,6.64.44,10,.42a188.76,188.76,0,0,1,31.8,2.71c22.35,3.62,44.8,6.22,67.59,5.47,20-.65,40-.3,60,0,8,.1,16.06.43,23.83,2,31.39,6.21,62.46,13.77,92.75,24.15,11.32,3.88,22.08,9.35,33.32,13.51,38.11,14.09,76.52,27.35,113.15,45.24,13.73,6.7,28,12.84,42.63,17,25,7.12,50.28,13.13,75.71,18.38,24.09,5,48.62,7.85,72.76,12.62,32,6.33,63.86,13.61,95.77,20.52,2,.42,3.84,1.11,5.75,1.71q83,26,163.75,58.5c53.11,21.55,107.1,40.66,160.49,61.38a88.31,88.31,0,0,0,11.43,3.65c32.43,7.78,63,21.55,95.27,29.95,13.46,3.5,26.74,8,40.43,10.81a111,111,0,0,1,13.59,3.22c27.15,9.41,55.1,15.85,83.19,21.41,41.17,8.13,82.56,15.12,123.86,22.59,2,.36,4,.6,5.93.88q51.41,7.23,102.8,14.49c23.07,3.31,46.11,6.84,69.17,10.22,31.6,4.62,63.26,8.91,94.81,13.88,27.63,4.35,55.15,9.4,82.7,14.22,24.91,4.35,50,7.92,74.66,13.49a697.05,697.05,0,0,1,67.33,18.81c25.87,8.65,51.81,17.47,78.85,22,20.36,3.42,40.8,6.35,61.22,9.39,27,4,54,7.71,81,11.94,25.63,4,51.38,7.69,76.72,13.15,29.94,6.45,59.53,14.55,89.22,22.16,13.55,3.47,27.53,6.12,40.29,11.56,14.29,6.09,29,9.74,44,12.86v404c-7.62.6-14.31-2.9-21.23-5.07-80.21-25.19-158.32-55.83-234.92-90.47-63.15-28.56-126.33-57.09-190.08-84.26-97.61-41.6-198.46-74.11-300.28-103.68-133.82-38.86-269.42-70.56-405.55-100.06-160.88-34.86-322.53-65.79-484.44-95.44-43.92-8-87.94-15.53-131.93-23.2-3.92-.68-7.93-.81-11.9-1.2C8424.83,6661.9,8422.19,6661.23,8419.17,6662.59Z" transform="translate(-4191.5 -5507.5)"/><path class="cls-10" d="M10207.5,6763.5c-15-3.12-29.67-6.77-44-12.86-12.76-5.44-26.74-8.09-40.29-11.56-29.69-7.61-59.28-15.71-89.22-22.16-25.34-5.46-51.09-9.12-76.72-13.15-27-4.23-54-7.92-81-11.94-20.42-3-40.86-6-61.22-9.39-27-4.55-53-13.37-78.85-22a697.05,697.05,0,0,0-67.33-18.81c-24.64-5.57-49.75-9.14-74.66-13.49-27.55-4.82-55.07-9.87-82.7-14.22-31.55-5-63.21-9.26-94.81-13.88-23.06-3.38-46.1-6.91-69.17-10.22q-51.39-7.35-102.8-14.49c-2-.28-4-.52-5.93-.88-41.3-7.47-82.69-14.46-123.86-22.59-28.09-5.56-56-12-83.19-21.41a111,111,0,0,0-13.59-3.22c-13.69-2.85-27-7.31-40.43-10.81-32.3-8.4-62.84-22.17-95.27-29.95a88.31,88.31,0,0,1-11.43-3.65c-53.39-20.72-107.38-39.83-160.49-61.38q-80.55-32.68-163.75-58.5c-1.91-.6-3.8-1.29-5.75-1.71-31.91-6.91-63.75-14.19-95.77-20.52-24.14-4.77-48.67-7.64-72.76-12.62-25.43-5.25-50.75-11.26-75.71-18.38-14.65-4.17-28.9-10.31-42.63-17-36.63-17.89-75-31.15-113.15-45.24-11.24-4.16-22-9.63-33.32-13.51-30.29-10.38-61.36-17.94-92.75-24.15-7.77-1.54-15.87-1.87-23.83-2-20-.27-40-.62-60,0-22.79.75-45.24-1.85-67.59-5.47a188.76,188.76,0,0,0-31.8-2.71c-3.33,0-6.77.28-10-.42-22.4-4.89-45.11-3.25-67.73-3.56-4.67-.07-9.48.35-14-.65-19.76-4.45-39.79-3.24-59.75-3.28q-62-.15-124,0c-10.68,0-21.34,0-31.81-2.57a21.46,21.46,0,0,0-5.92-.86c-24.73,1-49.08-3.64-73.67-5-29.85-1.64-59.59-5.6-89.34-8.81-18.52-2-37-4.37-55.47-6.79-40.92-5.35-82.1-8.85-122.64-16.81-11.2-2.2-22.37-3.58-33.74-3.16-14.74.53-29.18-1.36-43.66-4.11-16.33-3.09-32.82-6-49.37-7.16-23.38-1.6-45.84-8.46-69.12-10.46-11.91-1-23.65-4.05-35.55-5.26-44.23-4.48-85.83-18.85-127-34.29-18.67-7-36.54-16-56.28-20.17-7.29-1.52-13.13-6.39-19.19-10.49-11.55-7.83-23.79-14.82-32.63-26.05,7.49-.43,14.37,2.34,21.44,4.09,67.13,16.61,133.83,35.05,201.94,47.5,62.17,11.37,124.64,20.57,187.55,26.75,35.06,3.44,70.07,7.77,105.21,10.17,67,4.56,134.1,7.68,201.32,3.24,33.17-2.19,66.4-3.4,99.6-5.21,6.61-.36,13.18-1.41,19.77-2.15,21.94-1.29,43.92-2.07,65.81-4,79.76-6.9,159.67-8.42,239.66-7.12,73.45,1.19,146.34,7.74,218.15,23.94,51,11.5,99.81,28.77,145.85,53.67,15.82,8.55,31.85,16.73,47.6,25.43,34.84,19.23,72.34,30.29,111.28,37.38,36.7,6.67,73.39,13.47,109.91,21.07a878.48,878.48,0,0,1,169.24,53.85c63.61,27.46,127,55.44,190.61,82.92,62.41,27,125.58,51.94,190.94,71,63.49,18.54,128.25,30.63,193.76,39,84.63,10.78,169.73,16.67,254.62,24.69,132,12.48,263.69,27.78,393.59,55.44,80.95,17.24,160.57,38.91,236.73,71.89,31.81,13.77,63.07,28.68,91.91,48.16Z" transform="translate(-4191.5 -5507.5)"/><path class="cls-11" d="M7271.47,6371.21c2.06-3.65,4.92-6.59,9.19-7,14.57-1.31,28.8-5.15,43.64-4.86,24.65.5,49.33.56,74,0,15.5-.37,30.52,2.88,45.66,4.7,29.72,3.56,59.57,7.12,88.42,15.73,12.12,3.62,24,8.13,36,11.91,45.78,14.3,91.68,28.11,136.36,45.85,30.32,12,61.45,22.08,92.37,32.55,42.28,14.32,84.46,28.86,126.3,44.47,22.44,8.37,45.68,14.58,68.54,21.87,36.18,11.54,71.94,24.68,108.62,34.36,45.09,11.92,88.91,27.95,134.07,39.44,29.7,7.55,59.66,14.1,89.46,21.26,9.71,2.33,19.3,5.16,28.93,7.77,4.68,1.28,8.63,3.53,10.69,8.21-6.13,1.07-11.88-.87-17.71-2.2-6.5-1.48-12.94-3.59-19.52-4.23-28.62-2.74-56.63-9.15-84.54-15.26-48.19-10.55-96.58-19.9-145-29-54.33-10.22-108.82-19.62-163-30.59-32.7-6.63-65.74-10.37-98.67-15.15-27.66-4-55.36-7.85-82.95-12.37-11.87-1.94-23.63-3.87-35.7-3.71a126.91,126.91,0,0,1-15.94-1c-29.74-3.37-59.47-6.89-89.21-10.29-7.47-.85-14.74-.66-20.11,5.88-12.44-8.88-24.84-17.83-37.34-26.62-54.14-38.06-112.52-68.06-174.45-91.17-30.5-11.38-61.21-22.18-91.76-33.43C7282.23,6376.31,7276.12,6375.37,7271.47,6371.21Z" transform="translate(-4191.5 -5507.5)"/><path class="cls-12" d="M7591.34,6529.57c5.37-6.54,12.64-6.73,20.11-5.88,29.74,3.4,59.47,6.92,89.21,10.29a126.91,126.91,0,0,0,15.94,1c12.07-.16,23.83,1.77,35.7,3.71,27.59,4.52,55.29,8.34,82.95,12.37,32.93,4.78,66,8.52,98.67,15.15,54.18,11,108.67,20.37,163,30.59,48.45,9.1,96.84,18.45,145,29,27.91,6.11,55.92,12.52,84.54,15.26,6.58.64,13,2.75,19.52,4.23,5.83,1.33,11.58,3.27,17.71,2.2,2.49.5,5,1,7.44,1.5a11.09,11.09,0,0,0,8.6,2.38l7.41,1.34a11.22,11.22,0,0,0,8.8,2.24c4,1.22,8.25,1.74,11.13,5.26-4.86,3.29-10.05,2.52-15.39,1.56-22.89-4.09-45.82-8-68.73-12.06q-90.28-15.89-180.59-31.8a72.29,72.29,0,0,0-11.83-1.59c-31.38-.16-61.78-8.58-92.93-10.8-41-2.92-81.6-11.53-123-9.49a427.45,427.45,0,0,0-86.42,12.94c-19.23,5-39.11,7.52-58.76,10.76-13.09,2.17-26.12,5-39.54,4.53a20.92,20.92,0,0,0-14.66,5.33c-13.94-8-25.25-19.38-37.63-29.38-24.3-19.61-48.72-39.08-73-58.71C7600,6537.75,7595.76,6533.55,7591.34,6529.57Z" transform="translate(-4191.5 -5507.5)"/><path class="cls-10" d="M6559.49,5990.37c0,1.8.07,3.61.1,5.41a21.12,21.12,0,0,1-12.05-8.8C6551.84,5987,6556,5987.43,6559.49,5990.37Z" transform="translate(-4191.5 -5507.5)"/><path class="cls-12" d="M8419.17,6662.59c3-1.36,5.66-.69,8,1.53C8423.94,6666.56,8421.31,6665.86,8419.17,6662.59Z" transform="translate(-4191.5 -5507.5)"/><path class="cls-11" d="M8379.76,6651.36a11.09,11.09,0,0,1-8.6-2.38C8375.35,6645,8377.92,6646.84,8379.76,6651.36Z" transform="translate(-4191.5 -5507.5)"/><path class="cls-11" d="M8396,6654.94a11.22,11.22,0,0,1-8.8-2.24C8391.23,6649,8393.94,6650.64,8396,6654.94Z" transform="translate(-4191.5 -5507.5)"/></svg>